<?xml version="1.0" encoding="UTF-8" standalone="no"?>
<!-- Created with Inkscape (http://www.inkscape.org/) -->

<svg
   xmlns:dc="http://purl.org/dc/elements/1.1/"
   xmlns:cc="http://creativecommons.org/ns#"
   xmlns:rdf="http://www.w3.org/1999/02/22-rdf-syntax-ns#"
   xmlns:svg="http://www.w3.org/2000/svg"
   xmlns="http://www.w3.org/2000/svg"
   xmlns:sodipodi="http://sodipodi.sourceforge.net/DTD/sodipodi-0.dtd"
   xmlns:inkscape="http://www.inkscape.org/namespaces/inkscape"
   width="707.84717"
   height="76.751015"
   id="svg2"
   version="1.1"
   inkscape:version="0.48.4 r9939"
   sodipodi:docname="tbsod-720.svg">
  <defs
     id="defs4" />
  <sodipodi:namedview
     id="base"
     pagecolor="#ffffff"
     bordercolor="#666666"
     borderopacity="1.0"
     inkscape:pageopacity="0.0"
     inkscape:pageshadow="2"
     inkscape:zoom="1"
     inkscape:cx="369.0229"
     inkscape:cy="-73.782293"
     inkscape:document-units="px"
     inkscape:current-layer="layer1"
     showgrid="false"
     fit-margin-top="0"
     fit-margin-left="0"
     fit-margin-right="0"
     fit-margin-bottom="0"
     inkscape:window-width="1304"
     inkscape:window-height="745"
     inkscape:window-x="54"
     inkscape:window-y="-8"
     inkscape:window-maximized="1" />
  <metadata
     id="metadata7">
    <rdf:RDF>
      <cc:Work
         rdf:about="">
        <dc:format>image/svg+xml</dc:format>
        <dc:type
           rdf:resource="http://purl.org/dc/dcmitype/StillImage" />
        <dc:title></dc:title>
      </cc:Work>
    </rdf:RDF>
  </metadata>
  <g
     inkscape:label="Layer 1"
     inkscape:groupmode="layer"
     id="layer1"
     transform="translate(-5.9771016,-14.486912)">
    <g
       style="font-size:78px;font-style:oblique;font-variant:normal;font-weight:normal;font-stretch:normal;line-height:125%;letter-spacing:0px;word-spacing:0px;fill:#000000;fill-opacity:1;stroke:none;font-family:Alegreya;-inkscape-font-specification:Sans Oblique"
       id="text2985">
      <path
         id="path3136"
         style=""
         d="m 705.47836,67.370232 c 0.89696,-3.514822 2.20344,-7.600016 3.91945,-12.255594 1.71595,-4.655544 2.67143,-8.448241 2.86647,-11.378102 -0.0472,-2.123818 -0.6549,-3.901544 -1.82323,-5.333183 -1.16839,-1.431571 -2.61462,-2.17581 -4.3387,-2.23272 -2.43911,1.431641 -5.00983,3.911356 -7.71215,7.439154 -2.70235,3.527855 -5.40957,7.938044 -8.12164,13.23058 l -0.39,-0.233997 c 1.00579,-6.638558 2.11415,-13.025803 3.32507,-19.161753 1.2109,-6.135881 2.26147,-11.188478 3.15174,-15.157806 0.89023,-3.969228 1.35726,-6.023199 1.40109,-6.16192 l -0.70199,-0.935988 c -0.22589,0.01956 -1.72412,0.09756 -4.49469,0.233997 -2.7706,0.136555 -5.45831,0.214554 -8.06315,0.233997 l -0.46799,2.963962 3.19796,0 c 1.16022,-0.0048 1.99871,0.238925 2.51546,0.73124 0.51674,0.492422 0.77023,1.262661 0.7605,2.310721 -0.039,1.019724 -0.42901,4.099057 -1.16999,9.238006 -0.741,5.139033 -1.59899,10.899579 -2.57397,17.281654 -0.97499,6.382123 -1.83298,11.947671 -2.57396,16.69666 -0.741,4.749003 -1.13099,7.243343 -1.16999,7.483027 l 0.54599,0.701991 c 0.74262,-0.0455 1.69485,-0.285997 2.85672,-0.721492 1.16185,-0.435494 1.82159,-0.792989 1.97922,-1.072485 l 0.85799,-6.551915 c 2.75433,-6.415406 5.43554,-11.543835 8.04365,-15.385304 2.60807,-3.841424 4.76279,-5.810896 6.46416,-5.908422 0.79297,0.01628 1.42996,0.315273 1.91098,0.896987 0.48097,0.58177 0.72796,1.34876 0.74099,2.300972 -0.0732,1.907628 -0.5855,4.462332 -1.53687,7.664121 -0.95142,3.201824 -1.90281,6.368966 -2.85418,9.501433 -0.95142,3.132485 -1.46371,5.548526 -1.53687,7.248131 0.003,0.742616 0.21122,1.304858 0.62399,1.686727 0.41272,0.381868 1.01071,0.573616 1.79398,0.575244 0.84496,0.01137 2.15794,-0.654867 3.93894,-1.998725 1.78095,-1.343855 4.10792,-3.433576 6.98092,-6.269168 l -1.01399,-1.871976 -0.93599,-0.078 c -2.2555,1.966232 -3.76998,3.240215 -4.54344,3.821951 -0.77352,0.581746 -1.31301,0.841743 -1.61848,0.77999 z m -29.88609,-5.069935 c -2.07674,1.964608 -3.71471,3.358838 -4.91393,4.182694 -1.19925,0.823869 -2.13524,1.223614 -2.80797,1.199237 -0.73775,-0.0016 -1.25124,-0.232366 -1.54048,-0.692241 -0.28925,-0.459864 -0.37375,-1.139104 -0.25349,-2.037724 l 4.75793,-23.945692 0.85799,-0.467994 9.20389,0.078 0.62399,-3.11996 -0.312,-0.233997 -9.51588,0.078 c 0.74423,-3.136172 1.43972,-5.794636 2.08648,-7.975399 0.64672,-2.180678 0.99122,-3.318162 1.03348,-3.412454 l -0.46799,-0.935988 -7.01991,2.729965 c -0.013,0.112168 -0.14301,1.116405 -0.38999,3.012713 -0.24701,1.896391 -0.53301,4.012111 -0.85799,6.347166 l -6.23992,1.013987 -0.312,2.261971 0.234,0.389995 5.38193,0.233997 0.38999,0.311996 -4.28994,26.753656 c -0.17713,1.616855 0.13812,2.887588 0.94574,3.8122 0.8076,0.924613 2.00034,1.395857 3.5782,1.413732 1.30485,-0.06987 3.02407,-0.963612 5.15768,-2.681216 2.13359,-1.7176 4.3403,-3.83982 6.62017,-6.366667 l -0.93599,-1.871976 z m -29.01121,5.069935 c 0.71833,-4.932223 1.57825,-9.636232 2.57974,-14.112042 1.00144,-4.475771 1.89024,-8.145573 2.66641,-11.009415 0.77611,-2.863782 1.18536,-4.343835 1.22777,-4.440163 l -0.624,-0.935988 -2.41796,-1.169985 -0.39,0.078 -0.70199,1.949975 -7.7999,-1.247984 c -2.97072,0.0867 -5.80853,1.404016 -8.51345,3.951949 -2.70493,2.547996 -4.92453,5.806618 -6.6588,9.775873 -1.73428,3.969301 -2.63078,8.129243 -2.68952,12.479841 0.0114,3.376711 0.55411,5.983175 1.62823,7.819398 1.07411,1.836227 2.61133,2.765714 4.61169,2.788465 2.47483,-1.727352 4.89605,-4.103069 7.26366,-7.12716 2.36757,-3.024078 4.80829,-6.862274 7.32215,-11.5146 l 0.468,0.155998 c -0.0414,0.165646 -0.33128,1.429036 -0.86955,3.790174 -0.53831,2.361166 -1.0766,4.826317 -1.61487,7.39546 -0.53831,2.569155 -0.82816,4.24854 -0.86954,5.038157 -2e-5,1.49498 0.93597,2.24897 2.80796,2.261971 0.77672,0.03087 2.0117,-0.596369 3.70495,-1.881727 1.6932,-1.285357 4.09817,-3.414076 7.21491,-6.386166 l -1.01399,-1.871976 -0.93598,-0.078 c -2.2555,1.966232 -3.76998,3.240215 -4.54345,3.821951 -0.77351,0.581746 -1.31301,0.841743 -1.61847,0.77999 z m -15.5998,-0.389995 c -0.64025,-0.05524 -1.17324,-0.841733 -1.59898,-2.359471 -0.42575,-1.517722 -0.64675,-3.435195 -0.66299,-5.752425 0.0991,-4.818045 1.12935,-9.007237 3.09071,-12.567589 1.96134,-3.560299 4.25906,-5.429023 6.89316,-5.606177 1.08872,0.0098 2.3432,0.243779 3.76345,0.701991 1.42021,0.458274 2.79169,1.082265 4.11445,1.871976 -2.96074,6.68681 -5.9117,12.266982 -8.85289,16.740533 -2.94122,4.473575 -5.19019,6.797293 -6.74691,6.971162 z M 619.2518,42.254555 c -0.013,-1.959694 -0.55252,-3.461173 -1.61848,-4.504443 -1.06601,-1.043201 -2.58049,-1.569693 -4.54344,-1.579479 -2.96879,0.07707 -5.79313,1.283649 -8.473,3.619731 -2.67991,2.336148 -4.87447,5.339587 -6.5837,9.010328 -1.70924,3.670787 -2.59226,7.54666 -2.64907,11.627629 0.026,4.016957 0.83198,7.156413 2.41797,9.418379 1.58597,2.26197 3.79594,3.412454 6.62991,3.451455 2.28308,-0.04712 4.5613,-0.927862 6.83466,-2.642215 2.27333,-1.71435 4.18105,-3.979568 5.72318,-6.795663 l -1.16999,-1.871976 -1.09198,-0.078 c -1.08388,2.053982 -2.38712,3.678959 -3.9097,4.874936 -1.52263,1.195988 -3.07935,1.80698 -4.67019,1.832978 -1.85574,-0.04712 -3.27272,-1.064359 -4.25095,-3.051713 -0.97824,-1.987341 -1.38124,-4.662053 -1.20898,-8.024145 6.60878,-2.17258 11.36996,-4.457298 14.28356,-6.854162 2.91357,-2.396821 4.3403,-5.208032 4.2802,-8.433641 z m -8.65789,-1.55998 c 1.01722,0.0033 1.79071,0.308779 2.32047,0.916489 0.52972,0.607772 0.79622,1.498259 0.79949,2.671465 0.0357,2.117374 -0.95226,3.966598 -2.96396,5.547678 -2.01174,1.581125 -5.2617,3.059855 -9.74987,4.436193 0.6581,-3.807305 1.89634,-6.995512 3.7147,-9.564628 1.81834,-2.569061 3.77806,-3.904792 5.87917,-4.007197 z m -48.26499,32.60358 c 8.05174,-0.232372 14.78239,-3.21908 20.19199,-8.960134 5.4095,-5.741037 8.22072,-12.842189 8.43364,-21.303476 -0.11218,-6.21551 -2.2279,-11.178192 -6.34717,-14.888059 -4.11936,-3.709779 -9.56954,-5.611002 -16.35054,-5.703676 -0.22752,0.01305 -1.56651,0.06505 -4.01695,0.155998 -2.45049,0.09105 -4.64746,0.143047 -6.59091,0.155998 -1.58762,-0.0097 -3.24835,-0.0487 -4.98219,-0.117 -1.73386,-0.0682 -2.6731,-0.107199 -2.81771,-0.116997 l -0.85799,3.197959 0.078,0.311996 c 0.052,-0.0065 0.37698,-0.03245 0.97498,-0.078 0.59798,-0.04545 1.15698,-0.07145 1.67698,-0.078 1.07085,-0.03408 1.75659,0.248669 2.05723,0.84824 0.3006,0.599661 0.34285,1.720895 0.12675,3.363706 l -4.05595,33.149573 c -0.21938,2.131979 -0.81413,3.678958 -1.78423,4.640939 -0.97012,0.96199 -2.63735,1.650981 -5.00168,2.066974 l -0.85799,3.353957 c 0.12999,-0.039 1.11798,-0.194997 2.96396,-0.467994 1.84597,-0.272997 3.76994,-0.428995 5.77192,-0.467994 2.11246,0.039 4.47843,0.194998 7.09791,0.467994 2.61945,0.272995 4.04943,0.428993 4.28995,0.467994 z m 0.93598,-47.423389 c 6.84601,0.03417 12.04919,1.662399 15.60955,4.884689 3.56029,3.222372 5.35101,7.834058 5.37218,13.83507 -0.0813,7.492798 -1.94676,13.508464 -5.59642,18.047016 -3.64974,4.538571 -8.59617,6.86879 -14.83931,6.990662 -3.30523,0.04388 -5.6257,-0.336369 -6.96141,-1.140736 -1.33575,-0.80436 -1.97924,-2.29609 -1.93048,-4.475192 0.0162,-1.405596 0.51023,-5.146294 1.48198,-11.222105 0.97172,-6.075772 2.3237,-14.476905 4.05595,-25.203426 0.0926,-0.685697 0.33635,-1.147191 0.73124,-1.384484 0.39485,-0.2372 1.08709,-0.347698 2.07672,-0.331494 z m -55.3968,14.897808 5.38194,0.233997 0.54599,0.389995 -2.18397,26.519659 c -0.13651,2.088099 -0.25351,4.229819 -0.351,6.425166 -0.0975,2.195344 -0.2925,4.551561 -0.58499,7.06866 -0.26813,1.79234 -0.92137,3.258069 -1.95973,4.397192 -1.03836,1.139095 -2.25709,1.727337 -3.6562,1.764729 -1.69973,-0.02602 -3.03871,-0.617507 -4.01695,-1.774478 -0.97823,-1.156997 -1.45922,-2.723475 -1.44298,-4.699439 l -1.09198,0 c -0.45662,0.80923 -0.94736,1.862215 -1.47224,3.158958 -0.52486,1.29672 -0.9181,2.427704 -1.17973,3.392958 0.39488,1.03672 1.24312,1.888208 2.54472,2.554467 1.30161,0.666222 2.79334,1.010718 4.47519,1.033486 3.34583,-0.02602 6.07254,-1.163502 8.18014,-3.412456 2.10759,-2.248984 3.41082,-5.45344 3.9097,-9.613376 l 4.05595,-37.205521 0.77999,-0.467994 10.60786,0.078 0.624,-3.11996 -0.312,-0.233997 -11.30985,0.078 1.16998,-9.359879 c 0.70198,-5.927874 3.11994,-8.891832 7.25391,-8.891886 1.06271,5.4e-5 2.25219,0.214551 3.56845,0.643492 1.31621,0.429047 2.70069,1.072538 4.15345,1.930475 l 1.48198,-0.233997 2.41797,-4.913937 -0.312,-0.857989 c -1.01564,-0.355813 -2.24088,-0.638559 -3.6757,-0.848239 -1.43489,-0.209565 -2.83562,-0.316814 -4.2022,-0.321746 -4.26396,0.09106 -7.90391,1.644537 -10.91986,4.660442 -3.01597,3.016011 -4.86194,6.948456 -5.53792,11.797347 l -0.702,6.239919 -6.16192,0.935988 -0.31199,2.261971 z m -20.06565,28.235637 c -1.86386,-0.0585 -3.36209,-1.208982 -4.49469,-3.451457 -1.13262,-2.242462 -1.71436,-5.22592 -1.74522,-8.950384 0.0504,-4.614921 0.8856,-8.371869 2.50571,-11.270856 1.62009,-2.898933 3.72282,-4.393911 6.30817,-4.484941 1.96946,0.03416 3.50993,1.038393 4.62144,3.012713 1.11146,1.974377 1.67696,4.714088 1.69648,8.219142 -0.0488,4.970826 -0.88726,9.010519 -2.51547,12.119093 -1.62825,3.10859 -3.75372,4.710818 -6.37642,4.80669 z m -3.11995,4.289944 c 5.00979,-0.204748 9.20548,-2.739713 12.58708,-7.604903 3.38156,-4.865176 5.13978,-10.832093 5.27469,-17.900768 -0.0293,-3.691925 -0.82877,-6.545385 -2.39847,-8.560391 -1.56976,-2.01494 -3.73423,-3.035425 -6.49342,-3.06146 -4.86683,0.214533 -8.99752,2.671499 -12.39209,7.370904 -3.39459,4.699463 -5.16581,10.354385 -5.31368,16.964783 0.0422,3.945458 0.85473,7.052414 2.43747,9.320879 1.58272,2.26847 3.68219,3.425454 6.29842,3.470956 z m -38.01424,-5.927923 c 0.88721,-3.518072 2.15469,-7.616265 3.80245,-12.294593 1.64769,-4.678293 2.56418,-8.48399 2.74946,-11.417102 -0.0374,-2.154693 -0.60615,-3.929169 -1.70622,-5.323434 -1.10015,-1.394196 -2.50738,-2.115686 -4.2217,-2.16447 -2.43912,1.431641 -5.00983,3.911356 -7.71215,7.439154 -2.70236,3.527855 -5.40957,7.938044 -8.12165,13.23058 l -0.38999,-0.233997 c 0.8466,-4.766043 1.82484,-9.000735 2.93471,-12.704087 1.10985,-3.703295 1.71759,-5.656518 1.82323,-5.859674 l -0.70199,-0.935988 c -0.22914,0.01954 -1.74037,0.09754 -4.5337,0.233997 -2.79335,0.136533 -5.49406,0.214532 -8.10214,0.233997 l -0.54599,2.963962 3.19795,0 c 1.19761,-0.0065 2.05885,0.240529 2.58372,0.740989 0.52486,0.500523 0.78161,1.293513 0.77024,2.378971 -0.0223,0.754018 -0.24579,2.599993 -0.6703,5.537929 -0.42454,2.937982 -0.9161,6.187937 -1.47467,9.749874 -0.5586,3.561964 -1.05015,6.655921 -1.47467,9.281881 -0.42453,2.625967 -0.64797,4.003948 -0.6703,4.133946 l 0.54599,0.701991 c 0.74261,-0.0455 1.69485,-0.285997 2.85671,-0.721492 1.16185,-0.435494 1.82159,-0.792989 1.97923,-1.072485 l 0.85799,-6.395917 c 2.75432,-6.490152 5.43553,-11.66408 8.04364,-15.5218 2.60807,-3.857675 4.76279,-5.833647 6.46417,-5.927924 0.79296,0.01628 1.42995,0.315273 1.91097,0.896987 0.48097,0.58177 0.72797,1.34876 0.74099,2.300972 -0.0732,1.907628 -0.5855,4.462332 -1.53686,7.664121 -0.95143,3.201824 -1.90282,6.368966 -2.85419,9.501433 -0.95142,3.132485 -1.46371,5.548526 -1.53687,7.248131 0.003,0.742616 0.21123,1.304858 0.62399,1.686727 0.41272,0.381868 1.01072,0.573616 1.79398,0.575244 0.89859,-0.0032 2.26032,-0.698741 4.0852,-2.086473 1.82482,-1.38773 4.10304,-3.448201 6.83466,-6.18142 l -1.01399,-1.871976 -0.93599,-0.078 c -2.2555,1.966232 -3.76998,3.240215 -4.54344,3.821951 -0.77352,0.581746 -1.31301,0.841743 -1.61848,0.77999 z M 417.70102,42.254555 c -0.013,-1.959694 -0.55252,-3.461173 -1.61848,-4.504443 -1.06601,-1.043201 -2.58049,-1.569693 -4.54344,-1.579479 -2.9688,0.07707 -5.79313,1.283649 -8.47301,3.619731 -2.6799,2.336148 -4.87446,5.339587 -6.58369,9.010328 -1.70924,3.670787 -2.59226,7.54666 -2.64907,11.627629 0.026,4.016957 0.83198,7.156413 2.41797,9.418379 1.58597,2.26197 3.79594,3.412454 6.62991,3.451455 2.28308,-0.04712 4.5613,-0.927862 6.83466,-2.642215 2.27333,-1.71435 4.18105,-3.979568 5.72318,-6.795663 l -1.16999,-1.871976 -1.09198,-0.078 c -1.08389,2.053982 -2.38712,3.678959 -3.90971,4.874936 -1.52262,1.195988 -3.07935,1.80698 -4.67018,1.832978 -1.85574,-0.04712 -3.27272,-1.064359 -4.25095,-3.051713 -0.97824,-1.987341 -1.38124,-4.662053 -1.20898,-8.024145 6.60877,-2.17258 11.36996,-4.457298 14.28356,-6.854162 2.91357,-2.396821 4.3403,-5.208032 4.2802,-8.433641 z m -8.65789,-1.55998 c 1.01722,0.0033 1.79071,0.308779 2.32047,0.916489 0.52972,0.607772 0.79622,1.498259 0.79949,2.671465 0.0357,2.117374 -0.95226,3.966598 -2.96396,5.547678 -2.01174,1.581125 -5.2617,3.059855 -9.74988,4.436193 0.65811,-3.807305 1.89634,-6.995512 3.71471,-9.564628 1.81833,-2.569061 3.77806,-3.904792 5.87917,-4.007197 z m -19.37336,1.55998 c -0.013,-1.959694 -0.55252,-3.461173 -1.61848,-4.504443 -1.06601,-1.043201 -2.58049,-1.569693 -4.54344,-1.579479 -2.9688,0.07707 -5.79313,1.283649 -8.47301,3.619731 -2.6799,2.336148 -4.87446,5.339587 -6.58369,9.010328 -1.70924,3.670787 -2.59226,7.54666 -2.64907,11.627629 0.026,4.016957 0.83198,7.156413 2.41797,9.418379 1.58597,2.26197 3.79594,3.412454 6.62991,3.451455 2.28308,-0.04712 4.5613,-0.927862 6.83466,-2.642215 2.27333,-1.71435 4.18105,-3.979568 5.72318,-6.795663 l -1.16999,-1.871976 -1.09198,-0.078 c -1.08389,2.053982 -2.38712,3.678959 -3.90971,4.874936 -1.52262,1.195988 -3.07935,1.80698 -4.67018,1.832978 -1.85574,-0.04712 -3.27272,-1.064359 -4.25095,-3.051713 -0.97824,-1.987341 -1.38124,-4.662053 -1.20898,-8.024145 6.60877,-2.17258 11.36996,-4.457298 14.28356,-6.854162 2.91357,-2.396821 4.3403,-5.208032 4.2802,-8.433641 z m -8.65789,-1.55998 c 1.01722,0.0033 1.79071,0.308779 2.32047,0.916489 0.52972,0.607772 0.79622,1.498259 0.79949,2.671465 0.0357,2.117374 -0.95226,3.966598 -2.96396,5.547678 -2.01174,1.581125 -5.2617,3.059855 -9.74988,4.436193 0.65811,-3.807305 1.89634,-6.995512 3.71471,-9.564628 1.81833,-2.569061 3.77806,-3.904792 5.87917,-4.007197 z m -39.83468,31.667592 0.546,0.701991 c 0.74261,-0.0455 1.69484,-0.285997 2.85671,-0.721492 1.16185,-0.435494 1.82159,-0.792989 1.97922,-1.072485 l 1.16999,-8.813886 c 2.19696,-5.562289 4.56942,-9.939979 7.11741,-13.133083 2.54794,-3.193058 4.95941,-4.821285 7.2344,-4.884685 0.67109,0.01628 1.20083,0.08127 1.58923,0.194996 0.38834,0.113777 0.58659,0.178776 0.59475,0.194999 l 0.62399,-0.233997 c 0.11859,-0.503716 0.21284,-0.97821 0.28274,-1.423483 0.0698,-0.445214 0.1056,-0.880708 0.10725,-1.306482 0.003,-1.09683 -0.17877,-2.101066 -0.54599,-3.012712 -0.36728,-0.911579 -0.93927,-1.701317 -1.71598,-2.369219 -1.82163,0.13166 -4.06734,1.876886 -6.73716,5.235683 -2.66986,3.358859 -5.13008,7.541551 -7.38066,12.548088 l -0.31199,-0.078 c 0.82385,-4.051051 1.71109,-7.707251 2.66171,-10.96861 0.9506,-3.261301 1.46734,-4.987026 1.55023,-5.177182 l -0.70199,-0.935988 c -0.22914,0.01954 -1.74037,0.09754 -4.53369,0.233997 -2.79335,0.136533 -5.49406,0.214532 -8.10215,0.233997 l -0.54599,2.963962 3.19796,0 c 1.23173,-0.01297 2.10271,0.247029 2.61297,0.77999 0.51023,0.533023 0.75723,1.417011 0.74099,2.651966 -0.0224,0.903516 -0.24579,2.82099 -0.67031,5.752427 -0.42453,2.931482 -0.91609,6.135938 -1.47467,9.613376 -0.55859,3.477465 -1.05015,6.486922 -1.47467,9.028383 -0.42453,2.541468 -0.64796,3.87395 -0.6703,3.997448 z M 327.23454,40.772574 c 1.05621,-0.0016 2.0637,0.274654 3.02246,0.828741 0.95872,0.554149 1.8492,1.395886 2.67146,2.525216 l 1.09199,-0.233997 2.65197,-5.225933 -0.39,-0.857989 c -0.75889,-0.511834 -1.71763,-0.911579 -2.87621,-1.199236 -1.15864,-0.287585 -2.40987,-0.433833 -3.7537,-0.438743 -4.62471,0.24541 -8.67415,2.757625 -12.14835,7.536655 -3.47421,4.779087 -5.30068,10.352759 -5.47943,16.721033 0.026,4.016957 0.83199,7.156413 2.41797,9.418379 1.58597,2.26197 3.79594,3.412454 6.62992,3.451455 2.28308,-0.04712 4.5613,-0.927862 6.83466,-2.642215 2.27332,-1.71435 4.18105,-3.979568 5.72317,-6.795663 l -1.16998,-1.871976 -1.09199,-0.078 c -0.97826,2.023107 -2.23924,3.651334 -3.78295,4.884685 -1.54375,1.233363 -3.11672,1.867105 -4.71894,1.901228 -1.65749,-0.03737 -2.96397,-0.996108 -3.91945,-2.876213 -0.95549,-1.880092 -1.44299,-4.457306 -1.46248,-7.731651 0.0991,-4.543421 1.10986,-8.521366 3.03221,-11.933846 1.92234,-3.412428 4.16156,-5.206403 6.71767,-5.381931 z M 284.7392,73.298155 c 5.8629,-0.102374 10.55584,-1.652602 14.07882,-4.65069 3.52292,-2.998081 5.32989,-6.829778 5.42093,-11.495102 -0.0761,-2.491617 -0.95528,-4.614921 -2.63752,-6.369918 -1.68231,-1.754954 -3.71124,-3.323599 -6.08682,-4.70594 -2.37562,-1.382289 -4.64144,-2.760269 -6.79746,-4.133946 -1.63637,-1.111455 -2.9851,-2.300938 -4.0462,-3.568454 -1.06113,-1.267448 -1.61037,-2.729928 -1.64773,-4.387444 0.0715,-2.429303 1.09847,-4.415026 3.08096,-5.957175 1.98246,-1.54206 4.49142,-2.338298 7.5269,-2.388717 2.96881,-0.02758 5.08453,0.398165 6.34717,1.277233 1.26258,0.879158 1.87682,2.377388 1.84273,4.494693 -0.0358,1.264272 -0.17878,2.518754 -0.429,3.76345 -0.25028,1.24477 -0.39327,1.914261 -0.42899,2.008475 l 0.39,0.389995 2.80796,-0.311996 c 0.71333,-3.688662 1.41207,-6.782619 2.09622,-9.28188 0.68408,-2.499173 1.05132,-3.799155 1.10174,-3.89995 l -0.156,-0.389995 c -0.0797,-0.07795 -1.2269,-0.389946 -3.44171,-0.935988 -2.21488,-0.545943 -5.01959,-0.857938 -8.41414,-0.935988 -5.22433,0.112174 -9.51752,1.623404 -12.87958,4.533692 -3.36209,2.910381 -5.10082,6.54708 -5.21618,10.910109 0.15599,3.285739 1.50147,5.957202 4.03644,8.014397 2.53496,2.057249 5.32342,3.909723 8.3654,5.557429 2.28957,1.298377 4.22329,2.699108 5.80117,4.202196 1.57783,1.503123 2.40007,3.274348 2.46672,5.313681 -0.0585,2.887596 -1.15051,5.185314 -3.27596,6.89316 -2.12549,1.707856 -4.93346,2.582094 -8.42389,2.622717 -4.00883,0.147876 -6.56005,-0.713363 -7.65365,-2.583718 -1.09362,-1.870345 -1.24637,-5.637042 -0.45825,-11.300103 l -3.19795,0.389995 c -0.52,3.943836 -1.079,7.171041 -1.67698,9.681625 -0.598,2.510596 -0.923,3.807329 -0.97499,3.8902 l 0.312,0.77999 c 0.0682,0.10725 1.21873,0.536244 3.45145,1.286983 2.23271,0.750739 5.13817,1.179734 8.71639,1.286984 z m -31.41709,-31.0436 c -0.013,-1.959694 -0.55252,-3.461173 -1.61848,-4.504443 -1.06601,-1.043201 -2.58049,-1.569693 -4.54344,-1.579479 -2.96879,0.07707 -5.79312,1.283649 -8.473,3.619731 -2.6799,2.336148 -4.87447,5.339587 -6.5837,9.010328 -1.70924,3.670787 -2.59226,7.54666 -2.64907,11.627629 0.026,4.016957 0.83199,7.156413 2.41797,9.418379 1.58597,2.26197 3.79594,3.412454 6.62991,3.451455 2.28308,-0.04712 4.5613,-0.927862 6.83467,-2.642215 2.27332,-1.71435 4.18105,-3.979568 5.72317,-6.795663 l -1.16998,-1.871976 -1.09199,-0.078 c -1.08388,2.053982 -2.38712,3.678959 -3.9097,4.874936 -1.52262,1.195988 -3.07935,1.80698 -4.67019,1.832978 -1.85574,-0.04712 -3.27272,-1.064359 -4.25094,-3.051713 -0.97825,-1.987341 -1.38124,-4.662053 -1.20899,-8.024145 6.60878,-2.17258 11.36996,-4.457298 14.28357,-6.854162 2.91356,-2.396821 4.34029,-5.208032 4.28019,-8.433641 z m -8.65789,-1.55998 c 1.01722,0.0033 1.79071,0.308779 2.32047,0.916489 0.52973,0.607772 0.79622,1.498259 0.79949,2.671465 0.0357,2.117374 -0.95225,3.966598 -2.96396,5.547678 -2.01174,1.581125 -5.26169,3.059855 -9.74987,4.436193 0.65811,-3.807305 1.89634,-6.995512 3.7147,-9.564628 1.81834,-2.569061 3.77806,-3.904792 5.87917,-4.007197 z m -30.05569,14.117818 c -0.0414,0.163719 -0.33128,1.422294 -0.86955,3.775729 -0.53831,2.353462 -1.0766,4.819576 -1.61487,7.398348 -0.53831,2.578785 -0.82815,4.288021 -0.86954,5.127713 -2e-5,0.705242 0.23398,1.244734 0.70199,1.61848 0.46797,0.373744 1.16996,0.562242 2.10598,0.565492 0.72309,0.0455 1.90932,-0.552493 3.5587,-1.793977 1.64933,-1.241482 4.10304,-3.399452 7.36116,-6.473916 l -1.01399,-1.871976 -0.93599,-0.078 c -2.2555,1.966232 -3.76998,3.240215 -4.54344,3.821951 -0.77352,0.581746 -1.31301,0.841743 -1.61848,0.77999 l -0.234,-0.311996 c 0.71834,-4.928371 1.57825,-9.605417 2.57975,-14.031152 1.00143,-4.425698 1.89023,-8.045426 2.6664,-10.859195 0.77611,-2.81371 1.18536,-4.2668 1.22777,-4.359277 l -0.54599,-0.623992 -4.52395,-0.701991 -0.70199,0.233997 -1.40398,7.409905 c -3.04198,6.712809 -5.94744,12.143483 -8.71639,16.29204 -2.76898,4.148579 -4.93345,6.2838 -6.49341,6.405668 -0.81413,0.0033 -1.40887,-0.217743 -1.78423,-0.662993 -0.37538,-0.445238 -0.56063,-1.134229 -0.55574,-2.066972 0.0953,-1.798782 0.76264,-4.770445 2.00197,-8.914997 1.2393,-4.144518 2.47862,-8.029056 3.71795,-11.653627 1.2393,-3.624514 1.90663,-5.556191 2.00198,-5.795037 l -0.70199,-0.935988 c -0.22914,0.01954 -1.74037,0.09754 -4.5337,0.233997 -2.79334,0.136533 -5.49406,0.214532 -8.10214,0.233997 l -0.62399,2.963962 3.19796,0 c 1.1261,-0.0048 1.95484,0.219406 2.48621,0.672743 0.53136,0.4534 0.79461,1.16514 0.78974,2.135221 -0.0713,1.28701 -0.57007,3.488312 -1.49642,6.603913 -0.92637,3.115645 -1.85273,6.287601 -2.77908,9.515877 -0.92636,3.228302 -1.42517,5.654936 -1.49642,7.279909 0.0228,2.013352 0.64024,3.60258 1.85248,4.767688 1.21222,1.165109 2.8827,1.759851 5.01143,1.784227 2.41471,-1.789102 4.80017,-4.236318 7.15641,-7.341657 2.3562,-3.105326 4.70267,-6.898022 7.03941,-11.378102 z m -36.03579,12.557839 c 0.69223,-5.140612 1.56484,-10.639537 2.61784,-16.49679 1.05298,-5.857211 2.11084,-11.414634 3.17359,-16.672286 1.06272,-5.257575 1.95483,-9.557265 2.67634,-12.899083 0.72147,-3.341715 1.09684,-5.067441 1.12611,-5.177182 l -0.70199,-0.935988 c -0.22589,0.01956 -1.72412,0.09756 -4.4947,0.233997 -2.7706,0.136555 -5.45831,0.214554 -8.06314,0.233997 l -0.46799,2.963962 3.19795,0 c 1.16023,-0.0064 1.99872,0.240551 2.51547,0.74099 0.51673,0.500544 0.77023,1.293534 0.76049,2.37897 -0.0382,1.002053 -0.42007,3.946106 -1.14561,8.832168 -0.72556,4.886146 -1.56568,10.382226 -2.52034,16.488257 -0.95468,6.106081 -1.7948,11.490037 -2.52034,16.151885 -0.72556,4.661866 -1.10743,7.269548 -1.14561,7.823055 0.003,0.742616 0.21124,1.304858 0.62399,1.686727 0.41274,0.381868 1.01073,0.573616 1.79398,0.575244 0.90348,-0.0081 2.27496,-0.713367 4.11444,-2.115724 1.83947,-1.402355 4.10794,-3.453076 6.80541,-6.152169 l -1.01398,-1.871976 -0.93599,-0.078 c -2.15311,1.897983 -3.63834,3.152465 -4.45569,3.76345 -0.81738,0.610997 -1.38612,0.890493 -1.70623,0.838491 z m -42.92439,4.991935 c 1.90771,0.0325 3.74718,0.162499 5.51843,0.389995 1.77121,0.227496 3.49368,0.357494 5.16743,0.389995 5.07641,-0.142999 9.41185,-1.767977 13.00633,-4.874938 3.59442,-3.106953 5.47289,-6.837901 5.63543,-11.192855 -0.0228,-2.679571 -0.93278,-4.96429 -2.72997,-6.854161 -1.79726,-1.889827 -4.34522,-3.219059 -7.6439,-3.987699 3.23043,-1.347081 5.75889,-3.176807 7.5854,-5.489181 1.82644,-2.312312 2.75593,-4.980524 2.78847,-8.004645 -0.0472,-3.32954 -1.3179,-5.874255 -3.8122,-7.634153 -2.49438,-1.759803 -5.92958,-2.64704 -10.30562,-2.661715 -0.1609,0.01305 -1.14563,0.06505 -2.95421,0.155998 -1.80862,0.09105 -3.47585,0.143047 -5.00169,0.155998 -1.56649,-0.0097 -3.26947,-0.0487 -5.10893,-0.117 -1.83949,-0.0682 -2.84048,-0.107199 -3.00296,-0.116997 l -0.93599,3.197959 0.156,0.311996 c 0.0504,-0.0065 0.35911,-0.03245 0.92624,-0.078 0.5671,-0.04545 1.09035,-0.07145 1.56973,-0.078 1.10822,-0.03408 1.81671,0.248669 2.12547,0.84824 0.30873,0.599661 0.35423,1.720895 0.1365,3.363706 l -4.05595,33.071574 c -0.21938,2.169353 -0.81412,3.73908 -1.78423,4.709187 -0.97012,0.970117 -2.63735,1.662358 -5.00168,2.076725 l -0.77999,3.353957 c 0.11537,-0.039 1.0546,-0.194997 2.81771,-0.467994 1.7631,-0.272997 3.65782,-0.428995 5.68418,-0.467994 z m 13.88382,-23.555696 c 3.04193,0.557391 5.3234,1.646126 6.84441,3.266208 1.52095,1.620123 2.28144,3.703344 2.28147,6.249669 -0.0423,3.399467 -1.04977,6.09693 -3.02246,8.092396 -1.97275,1.995478 -4.65722,3.015964 -8.0534,3.061461 -3.1281,0.02275 -5.31532,-0.393242 -6.56166,-1.247984 -1.24637,-0.854735 -1.73712,-2.284715 -1.47223,-4.289945 l 2.18397,-14.975807 z m -7.25391,-3.665953 c 0.51023,-3.4238 1.01072,-6.618506 1.50148,-9.584126 0.49073,-2.965547 0.95222,-5.750759 1.38448,-8.355643 0.13648,-0.688946 0.31198,-1.16344 0.5265,-1.423484 0.21447,-0.259951 0.58497,-0.383448 1.11148,-0.370493 4.12417,-0.0048 7.18563,0.706911 9.18439,2.135222 1.99869,1.4284 2.99317,3.60262 2.98346,6.522666 -0.105,3.213882 -0.83973,5.669403 -2.2042,7.366571 -1.36453,1.69723 -2.72903,2.85277 -4.0935,3.466623 -1.36453,0.613907 -2.09926,0.902792 -2.20419,0.866656 -0.42036,-0.0077 -1.27834,-0.0616 -2.57397,-0.161777 -1.29567,-0.100121 -2.53499,-0.200268 -3.71795,-0.300442 -1.18301,-0.100119 -1.81567,-0.154044 -1.89798,-0.161773 z m -33.83505,-2.885963 c -0.013,-1.959694 -0.55252,-3.461173 -1.61848,-4.504443 -1.06601,-1.043201 -2.58049,-1.569693 -4.54344,-1.579479 -2.968798,0.07707 -5.79313,1.283649 -8.473008,3.619731 -2.679902,2.336148 -4.874464,5.339587 -6.583694,9.010328 -1.70924,3.670787 -2.592264,7.54666 -2.649074,11.627629 0.026,4.016957 0.831986,7.156413 2.417969,9.418379 1.585973,2.26197 3.795942,3.412454 6.629914,3.451455 2.283081,-0.04712 4.5613,-0.927862 6.834663,-2.642215 2.27333,-1.71435 4.18105,-3.979568 5.72318,-6.795663 l -1.16999,-1.871976 -1.09199,-0.078 c -1.08388,2.053982 -2.38711,3.678959 -3.9097,4.874936 -1.52262,1.195988 -3.079348,1.80698 -4.670185,1.832978 -1.855738,-0.04712 -3.272719,-1.064359 -4.250946,-3.051713 -0.978246,-1.987341 -1.38124,-4.662053 -1.208983,-8.024145 6.608775,-2.17258 11.369964,-4.457298 14.283564,-6.854162 2.91356,-2.396821 4.34029,-5.208032 4.2802,-8.433641 z m -8.657892,-1.55998 c 1.017222,0.0033 1.790712,0.308779 2.320472,0.916489 0.52972,0.607772 0.79622,1.498259 0.79949,2.671465 0.0357,2.117374 -0.95226,3.966598 -2.963964,5.547678 -2.011741,1.581125 -5.261696,3.059855 -9.749874,4.436193 0.658107,-3.807305 1.89634,-6.995512 3.714702,-9.564628 1.818338,-2.569061 3.778061,-3.904792 5.879174,-4.007197 z M 70.204925,67.370232 c 0.896961,-3.514822 2.203442,-7.600016 3.919449,-12.255594 1.715945,-4.655544 2.671433,-8.448241 2.866464,-11.378102 -0.04716,-2.123818 -0.654899,-3.901544 -1.823227,-5.333183 -1.168391,-1.431571 -2.614621,-2.17581 -4.338694,-2.23272 -2.439118,1.431641 -5.009832,3.911356 -7.712151,7.439154 -2.702358,3.527855 -5.40957,7.938044 -8.121645,13.23058 L 54.605126,56.60637 c 1.00579,-6.638558 2.114144,-13.025803 3.325067,-19.161753 1.210895,-6.135881 2.261472,-11.188478 3.151737,-15.157806 0.89023,-3.969228 1.357261,-6.023199 1.401095,-6.16192 l -0.701991,-0.935988 c -0.22589,0.01956 -1.724119,0.09756 -4.494693,0.233997 -2.770601,0.136555 -5.458313,0.214554 -8.063146,0.233997 l -0.467994,2.963962 3.197959,0 c 1.160225,-0.0048 1.998713,0.238925 2.515467,0.73124 0.516732,0.492422 0.770229,1.262661 0.760491,2.310721 -0.03901,1.019724 -0.429005,4.099057 -1.169985,9.238006 -0.741001,5.139033 -1.598989,10.899579 -2.573967,17.281654 -0.974993,6.382123 -1.832981,11.947671 -2.573967,16.69666 -0.740995,4.749003 -1.13099,7.243343 -1.169984,7.483027 l 0.545992,0.701991 c 0.742612,-0.0455 1.694849,-0.285997 2.856715,-0.721492 1.161852,-0.435494 1.821592,-0.792989 1.979223,-1.072485 l 0.857989,-6.551915 c 2.754326,-6.415406 5.435539,-11.543835 8.043646,-15.385304 2.608071,-3.841424 4.762791,-5.810896 6.464167,-5.908422 0.792964,0.01628 1.429955,0.315273 1.910975,0.896987 0.480966,0.58177 0.727963,1.34876 0.740991,2.300972 -0.07321,1.907628 -0.5855,4.462332 -1.536869,7.664121 -0.95142,3.201824 -1.902814,6.368966 -2.854186,9.501433 -0.951417,3.132485 -1.463706,5.548526 -1.536868,7.248131 0.0032,0.742616 0.211225,1.304858 0.623992,1.686727 0.412722,0.381868 1.010714,0.573616 1.793976,0.575244 0.844964,0.01137 2.157945,-0.654867 3.938949,-1.998725 1.780947,-1.343855 4.107915,-3.433576 6.980911,-6.269168 l -1.013987,-1.871976 -0.935988,-0.078 c -2.255502,1.966232 -3.769981,3.240215 -4.543443,3.821951 -0.773518,0.581746 -1.31301,0.841743 -1.618478,0.77999 z M 19.860923,59.72633 c -0.403012,4.051083 -1.118003,6.654297 -2.144974,7.80965 -1.027,1.155363 -3.223969,1.828104 -6.590914,2.018224 l -0.935988,3.119959 c 0.194991,-0.013 1.423474,-0.065 3.685453,-0.155998 2.261957,-0.091 4.387427,-0.142999 6.376418,-0.155998 2.024703,0.0097 4.293171,0.04875 6.805411,0.116998 2.512192,0.06825 3.883673,0.107248 4.114448,0.116999 l 1.091986,-3.353956 -0.155998,-0.311996 c -0.0082,0.0098 -0.381899,0.04875 -1.121236,0.116997 -0.739393,0.06825 -1.795628,0.107252 -3.168709,0.117 -1.278882,0.0098 -2.21162,-0.302242 -2.798214,-0.935988 -0.586639,-0.633738 -0.875885,-1.647724 -0.867738,-3.041961 0.01948,-0.867732 0.263225,-3.012703 0.73124,-6.434919 0.46797,-3.422188 1.043212,-7.361134 1.725726,-11.816847 0.682466,-4.455663 1.355207,-8.667605 2.018224,-12.635837 0.662966,-3.968155 1.199209,-6.932114 1.608731,-8.891885 5.312024,0.07805 8.591229,0.663037 9.837623,1.754976 1.24632,1.092029 1.815062,3.860991 1.706229,8.306894 l 3.431955,-0.311996 c -0.01954,-0.128335 -0.01954,-1.451066 0,-3.968198 0.01946,-2.517049 0.175454,-5.458259 0.467994,-8.823637 l -0.623992,-0.545993 -6.395917,0.857989 -23.243701,0 -5.9279236,-0.857989 -0.77999,0.545993 c -0.5573732,3.378378 -1.1391157,6.371586 -1.7452293,8.979634 -0.6061217,2.60813 -0.9343666,3.982861 -0.9847355,4.124197 l 3.4319558,-0.311996 c 0.6928356,-2.958624 1.4044556,-5.101187 2.1348606,-6.427694 0.730388,-1.32642 2.002444,-2.180557 3.816173,-2.562413 1.813704,-0.381763 4.69196,-0.635019 8.634779,-0.759767 z" />
    </g>
  </g>
</svg>
