<?xml version="1.0" encoding="UTF-8" standalone="no"?>
<!-- Created with Inkscape (http://www.inkscape.org/) -->

<svg
   xmlns:dc="http://purl.org/dc/elements/1.1/"
   xmlns:cc="http://creativecommons.org/ns#"
   xmlns:rdf="http://www.w3.org/1999/02/22-rdf-syntax-ns#"
   xmlns:svg="http://www.w3.org/2000/svg"
   xmlns="http://www.w3.org/2000/svg"
   xmlns:sodipodi="http://sodipodi.sourceforge.net/DTD/sodipodi-0.dtd"
   xmlns:inkscape="http://www.inkscape.org/namespaces/inkscape"
   width="437.72134"
   height="45.263416"
   id="svg2989"
   version="1.1"
   inkscape:version="0.48.4 r9939"
   sodipodi:docname="tbsod-480.svg">
  <defs
     id="defs2991" />
  <sodipodi:namedview
     id="base"
     pagecolor="#ffffff"
     bordercolor="#666666"
     borderopacity="1.0"
     inkscape:pageopacity="0.0"
     inkscape:pageshadow="2"
     inkscape:zoom="1"
     inkscape:cx="313.66602"
     inkscape:cy="-134.47317"
     inkscape:document-units="px"
     inkscape:current-layer="layer1"
     showgrid="false"
     fit-margin-top="0"
     fit-margin-left="0"
     fit-margin-right="0"
     fit-margin-bottom="0"
     inkscape:window-width="1304"
     inkscape:window-height="745"
     inkscape:window-x="54"
     inkscape:window-y="-8"
     inkscape:window-maximized="1" />
  <metadata
     id="metadata2994">
    <rdf:RDF>
      <cc:Work
         rdf:about="">
        <dc:format>image/svg+xml</dc:format>
        <dc:type
           rdf:resource="http://purl.org/dc/dcmitype/StillImage" />
        <dc:title></dc:title>
      </cc:Work>
    </rdf:RDF>
  </metadata>
  <g
     inkscape:label="Layer 1"
     inkscape:groupmode="layer"
     id="layer1"
     transform="translate(-61.333983,-198.23062)">
    <g
       style="font-size:46px;font-style:oblique;font-variant:normal;font-weight:bold;font-stretch:normal;text-align:start;line-height:125%;letter-spacing:0px;word-spacing:0px;writing-mode:lr-tb;text-anchor:start;fill:#000000;fill-opacity:1;stroke:none;font-family:Alegreya;-inkscape-font-specification:Alegreya Bold Oblique"
       id="text2997">
      <path
         id="path3094"
         style="line-height:125%;font-family:Alegreya;-inkscape-font-specification:Alegreya Bold Oblique"
         d="m 494.3174,227.30225 c 0.23026,-1.02874 0.61302,-2.31899 1.14828,-3.87077 0.53522,-1.55176 1.03723,-3.08053 1.50605,-4.58631 0.46878,-1.50575 0.71865,-2.70401 0.74962,-3.59477 -0.024,-1.40296 -0.50505,-2.52995 -1.44323,-3.38095 -0.93822,-0.85097 -2.18978,-1.28797 -3.7547,-1.31099 -1.15575,0.69864 -2.36324,1.92337 -3.62246,3.67421 -1.25924,1.75087 -2.53572,3.97608 -3.82945,6.67566 l -0.27599,-0.046 c 0.52955,-3.4099 1.11618,-6.76104 1.7599,-10.05343 0.6437,-3.29234 1.20307,-6.03015 1.67813,-8.21345 0.47503,-2.18323 0.72433,-3.31618 0.74791,-3.39884 l -0.55199,-0.73599 c -0.0457,0.005 -0.5574,0.0409 -1.53502,0.10733 -0.97764,0.0665 -2.14693,0.13292 -3.50788,0.19933 -1.36096,0.0665 -2.63929,0.10226 -3.83498,0.10733 l -0.414,2.71397 1.60998,0 c 0.66028,-0.008 1.12219,0.13419 1.38573,0.42549 0.26354,0.29136 0.36895,0.77819 0.31625,1.46048 -0.0896,0.80586 -0.35602,2.67291 -0.79924,5.60115 -0.44323,2.92829 -0.93964,6.15376 -1.48923,9.67641 -0.5496,3.52268 -1.02876,6.57852 -1.43748,9.16754 -0.40873,2.58902 -0.62339,3.9472 -0.644,4.07454 l 0.598,0.73599 c 1.09631,-0.022 2.13513,-0.20796 3.11646,-0.55775 0.98131,-0.34978 1.53714,-0.73119 1.66748,-1.14423 l 0.41399,-3.31196 c 1.34164,-3.36753 2.63729,-6.07383 3.88695,-8.11889 1.24964,-2.04505 2.26929,-3.09536 3.05896,-3.15096 0.37182,0.004 0.66314,0.14568 0.87399,0.42549 0.21081,0.27985 0.31815,0.67468 0.322,1.18449 -0.0392,0.89558 -0.3135,2.19151 -0.82288,3.8878 -0.50942,1.69631 -1.01882,3.38749 -1.52821,5.07356 -0.50941,1.68608 -0.7837,2.96157 -0.82287,3.82647 -2e-5,0.68808 0.18398,1.1979 0.55199,1.52948 0.36798,0.33158 0.91997,0.49641 1.65598,0.4945 0.84235,0.024 1.88308,-0.42646 3.12221,-1.35124 1.23909,-0.92478 2.86632,-2.46767 4.88168,-4.62869 l -0.73599,-1.60998 -0.82799,-0.13799 c -1.12988,1.00145 -1.88311,1.64352 -2.25972,1.92622 -0.37664,0.28271 -0.63538,0.40729 -0.77624,0.37375 z m -19.6714,-2.34597 c -0.97271,0.97653 -1.74128,1.66844 -2.30572,2.07572 -0.56446,0.40729 -1.02254,0.60471 -1.37423,0.59224 -0.38909,1e-5 -0.65742,-0.12649 -0.80499,-0.37949 -0.14759,-0.25299 -0.18593,-0.63249 -0.115,-1.13849 l 2.20797,-11.59185 0.55199,-0.32199 4.92194,0.046 0.41399,-2.57597 -0.22999,-0.23 -5.01394,0 c 0.39099,-1.73741 0.75898,-3.23047 1.10399,-4.47919 0.34498,-1.24867 0.52898,-1.90224 0.55199,-1.96073 l -0.45999,-0.55199 -5.88793,1.60998 c -0.006,0.0671 -0.0747,0.64594 -0.207,1.73648 -0.13225,1.09059 -0.29325,2.29041 -0.48299,3.59945 l -3.49595,0.552 -0.276,2.11597 0.138,0.23 2.85196,0.092 0.322,0.276 -2.29997,13.66182 c -0.15046,1.4394 0.15045,2.56256 0.90273,3.36946 0.75228,0.80691 1.89268,1.21707 3.42121,1.23049 0.74365,-0.0355 1.7518,-0.62004 3.02446,-1.75373 1.27264,-1.13369 2.62579,-2.60376 4.05945,-4.4102 l -0.73599,-1.65597 z m -17.2127,2.39197 c 0.38842,-2.47942 0.8382,-4.89581 1.34932,-7.24917 0.51108,-2.35334 0.96086,-4.30292 1.34931,-5.84874 0.38842,-1.54579 0.59287,-2.34708 0.61333,-2.40389 l -0.36799,-0.78199 -3.72596,-0.64399 -0.50599,0.32199 -0.322,1.01199 -4.00194,-0.82799 c -1.83119,0.0514 -3.58655,0.82261 -5.26608,2.3136 -1.67956,1.49102 -3.0601,3.39346 -4.14165,5.70733 -1.08156,2.3139 -1.64093,4.73085 -1.67813,7.25087 0.0115,2.13131 0.47149,3.77962 1.37998,4.94494 0.90849,1.16532 2.19647,1.75564 3.86395,1.77098 1.20269,-0.82895 2.39675,-2.00002 3.5822,-3.51321 1.18544,-1.51318 2.46,-3.50074 3.82371,-5.96267 l 0.36799,0.046 c -0.16413,0.65791 -0.36744,1.52963 -0.60992,2.61515 -0.2425,1.08553 -0.45944,2.11739 -0.6508,3.09559 -0.1914,0.9782 -0.29248,1.63525 -0.30326,1.97116 -0.008,1.15765 0.65165,1.74031 1.97798,1.74798 0.82797,0.0355 1.83996,-0.39196 3.03596,-1.28224 1.19596,-0.89028 2.85194,-2.45617 4.96793,-4.69769 l -0.73599,-1.60998 -0.78199,-0.092 c -1.0695,0.94108 -1.80549,1.56591 -2.20797,1.87448 -0.40251,0.30858 -0.67851,0.45042 -0.82799,0.42549 z m -9.98187,0.18399 c -0.28367,-0.022 -0.52133,-0.39194 -0.71299,-1.10973 -0.19167,-0.71778 -0.29134,-1.65118 -0.29899,-2.80021 0.0441,-2.32967 0.4619,-4.39773 1.25348,-6.20418 0.79156,-1.80641 1.69238,-2.75898 2.70246,-2.85771 0.58553,0.004 1.23143,0.12269 1.93773,0.3565 0.70627,0.23385 1.40968,0.55967 2.11022,0.97748 -1.21133,3.16152 -2.49165,5.8659 -3.84095,8.11315 -1.34932,2.24727 -2.39964,3.42217 -3.15096,3.5247 z m -8.03072,-12.60383 c -0.0125,-1.36751 -0.44755,-2.42741 -1.30523,-3.17971 -0.85772,-0.75226 -2.06328,-1.13367 -3.61671,-1.14424 -3.1433,0.13132 -5.8496,1.58221 -8.11889,4.3527 -2.26931,2.77052 -3.45763,6.07289 -3.56496,9.90712 0.022,2.48876 0.59895,4.44565 1.73073,5.87067 1.13177,1.42503 2.68617,2.15143 4.66319,2.17923 1.77576,-0.0355 3.47965,-0.62004 5.11168,-1.75373 1.63201,-1.13369 2.88741,-2.60376 3.76621,-4.4102 l -1.51798,-1.83997 -0.78199,-0.092 c -0.65072,1.15766 -1.37329,2.05081 -2.16773,2.67946 -0.79446,0.62867 -1.62053,0.94683 -2.47821,0.95449 -0.92575,-0.0153 -1.63874,-0.42165 -2.13898,-1.21898 -0.50025,-0.79732 -0.75324,-1.89364 -0.75899,-3.28896 3.98757,-1.22664 6.85678,-2.53379 8.60764,-3.92145 1.75084,-1.38763 2.60758,-3.08578 2.57022,-5.09443 z m -6.53192,-0.276 c 0.48586,9.8e-4 0.8596,0.13706 1.12124,0.40825 0.26161,0.27122 0.39386,0.6718 0.39674,1.20173 0.0105,0.98229 -0.47054,1.8697 -1.44323,2.66222 -0.9727,0.79254 -2.50027,1.53045 -4.58269,2.21372 0.32295,-1.94059 0.89602,-3.49882 1.71923,-4.67469 0.82319,-1.17585 1.75276,-1.77959 2.78871,-1.81123 z m -28.88658,18.26177 c 5.06758,-0.1083 9.19219,-1.85819 12.37384,-5.24969 3.18159,-3.39149 4.82224,-7.77484 4.92193,-13.15008 -0.047,-3.75468 -1.24105,-6.66414 -3.5822,-8.72839 -2.3412,-2.06419 -5.54774,-3.11068 -9.61963,-3.13945 -0.14855,0.01 -1.00146,0.0479 -2.55871,0.11499 -1.55729,0.0671 -2.92769,0.10545 -4.1112,0.115 -1.0005,-0.006 -2.16198,-0.0287 -3.48446,-0.069 -1.32248,-0.0402 -2.04697,-0.0632 -2.17347,-0.069 l -0.68999,2.75997 0.184,0.41399 c 0.0259,-0.004 0.20412,-0.0191 0.53474,-0.046 0.33062,-0.0268 0.65836,-0.0421 0.98324,-0.046 0.52132,-0.0201 0.85865,0.14665 1.01199,0.50025 0.15332,0.35364 0.16865,1.01488 0.046,1.98372 l -2.16198,17.57178 c -0.15621,1.25924 -0.49929,2.16772 -1.02923,2.72546 -0.52996,0.55775 -1.41353,0.93724 -2.65072,1.13849 l -0.68999,3.08196 c 0.0949,-0.0192 0.76762,-0.0958 2.01823,-0.23 1.2506,-0.13417 2.50983,-0.21083 3.7777,-0.23 1.39435,0.023 2.86058,0.115 4.39869,0.276 1.53809,0.161 2.37183,0.25299 2.50122,0.276 z m 1.70198,-26.40366 c 2.82798,-0.003 4.94587,0.70439 6.35366,2.12172 1.40775,1.41738 2.11116,3.5621 2.11023,6.43417 -0.0278,4.36612 -0.86922,7.77774 -2.52422,10.23486 -1.65504,2.45714 -3.95692,3.70679 -6.90566,3.74896 -1.22475,0.0163 -2.08724,-0.15429 -2.58747,-0.51175 -0.50025,-0.35745 -0.74175,-0.99952 -0.72449,-1.92622 0.0136,-0.44664 0.17547,-1.71021 0.48555,-3.7907 0.31006,-2.08046 0.68657,-4.50594 1.12954,-7.27642 0.44295,-2.77045 0.87057,-5.41399 1.28287,-7.93064 0.0575,-0.42834 0.18399,-0.72159 0.3795,-0.87974 0.19548,-0.15809 0.52898,-0.23284 1.00049,-0.22424 z m -34.54942,7.7739 3.26595,0.092 0.414,0.322 -1.24198,16.14579 c -0.0403,0.76091 -0.0748,1.58506 -0.1035,2.47247 -0.0288,0.8874 -0.0863,1.82656 -0.1725,2.81746 -0.0863,1.15957 -0.41975,2.06039 -1.00049,2.70247 -0.58074,0.64207 -1.30523,0.9679 -2.17347,0.97749 -2.07764,-1e-5 -3.16629,-1.24199 -3.26596,-3.72596 l -0.73599,0 c -0.41591,0.60183 -0.86057,1.38765 -1.33398,2.35747 -0.47341,0.96982 -0.82607,1.82464 -1.05799,2.56447 0.28463,0.72736 0.89987,1.3196 1.84573,1.77673 0.94586,0.45711 2.0326,0.69285 3.26021,0.70724 2.2348,-0.07 4.21661,-0.97654 5.94542,-2.71972 1.7288,-1.74319 2.76762,-3.90324 3.11646,-6.48016 l 2.16197,-19.82575 0.414,-0.27599 5.93392,0.046 0.45999,-2.57597 -0.22999,-0.23 -6.25592,0 0.55199,-4.64594 c 0.20028,-1.57833 0.60469,-2.73406 1.21323,-3.4672 0.60853,-0.73309 1.46143,-1.09534 2.55872,-1.08674 0.57115,-0.005 1.2113,0.13132 1.92048,0.40825 0.70914,0.27698 1.51029,0.72356 2.40347,1.33973 l 0.87399,-0.138 2.06997,-4.41594 -0.184,-0.506 c -0.62293,-0.20984 -1.37809,-0.37658 -2.26547,-0.50024 -0.88743,-0.12359 -1.75758,-0.18684 -2.61047,-0.18975 -2.81652,0.0815 -5.3369,1.09156 -7.56115,3.03021 -2.22427,1.93872 -3.53717,4.31727 -3.9387,7.13566 l -0.32199,2.94396 -3.86395,0.598 -0.23,2.11597 z m -11.83864,14.9498 c -0.85963,-0.0153 -1.53237,-0.54815 -2.01823,-1.59848 -0.48587,-1.05031 -0.73312,-2.52612 -0.74174,-4.42744 0.0182,-2.57021 0.37278,-4.62868 1.06374,-6.17542 0.69094,-1.54672 1.60901,-2.3402 2.75421,-2.38047 0.9219,9.8e-4 1.61955,0.47055 2.09297,1.40873 0.4734,0.93822 0.71106,2.33928 0.713,4.2032 -0.0115,2.8491 -0.35651,5.05131 -1.03499,6.60666 -0.6785,1.55536 -1.62149,2.3431 -2.82896,2.36322 z m -1.79398,3.67996 c 3.35507,-0.0901 6.08628,-1.4854 8.19364,-4.18595 2.10733,-2.70054 3.19407,-6.16583 3.26021,-10.39587 -0.0125,-2.49736 -0.59705,-4.414 -1.75373,-5.74992 -1.15671,-1.33588 -2.81077,-2.01054 -4.96218,-2.02398 -3.31101,0.0911 -6.01539,1.44996 -8.11315,4.0767 -2.09777,2.62677 -3.18067,5.97514 -3.24871,10.04512 0.0201,2.59706 0.61237,4.61336 1.77673,6.04892 1.16436,1.43557 2.78009,2.16389 4.84719,2.18498 z m -21.00129,-5.61193 c 0.22912,-1.02845 0.60393,-2.31927 1.12443,-3.87247 0.52045,-1.55318 1.0077,-3.08593 1.46176,-4.59824 0.454,-1.51229 0.69593,-2.72133 0.72576,-3.62714 -0.0201,-1.40104 -0.48589,-2.52036 -1.39723,-3.35795 -0.91138,-0.83755 -2.14761,-1.26688 -3.7087,-1.28799 -1.15575,0.69864 -2.36323,1.92337 -3.62245,3.67421 -1.25925,1.75087 -2.53573,3.97608 -3.82945,6.67566 l -0.276,-0.046 c 0.39194,-2.30762 0.83852,-4.36226 1.33973,-6.16392 0.50119,-1.80162 0.77527,-2.75228 0.82224,-2.85196 l -0.50599,-0.73599 c -0.0454,0.005 -0.55257,0.0409 -1.52139,0.10733 -0.96883,0.0665 -2.12677,0.13291 -3.47381,0.19933 -1.34705,0.0665 -2.61061,0.10224 -3.79069,0.10733 l -0.45999,2.71397 1.60998,0 c 0.66219,-0.008 1.13177,0.13418 1.40873,0.42549 0.27695,0.29135 0.39003,0.77817 0.33924,1.46048 -0.0686,0.58399 -0.23036,1.70164 -0.48515,3.35293 -0.25479,1.65132 -0.53582,3.43738 -0.84308,5.35821 -0.30726,1.92084 -0.57392,3.57754 -0.79996,4.97009 -0.22604,1.39256 -0.34464,2.12208 -0.35577,2.18857 l 0.59799,0.73599 c 1.09631,-0.022 2.13513,-0.20796 3.11646,-0.55775 0.98131,-0.34978 1.53714,-0.73119 1.66748,-1.14423 l 0.41399,-3.26596 c 1.34164,-3.38957 2.63729,-6.10928 3.88695,-8.15914 1.24964,-2.04984 2.26929,-3.10207 3.05896,-3.15671 0.37182,0.004 0.66315,0.14568 0.87399,0.42549 0.21081,0.27985 0.31815,0.67468 0.322,1.18449 -0.0392,0.89558 -0.3135,2.19151 -0.82288,3.8878 -0.50942,1.69631 -1.01882,3.38749 -1.5282,5.07356 -0.50942,1.68608 -0.78371,2.96157 -0.82288,3.82647 -2e-5,0.68808 0.18398,1.1979 0.55199,1.52948 0.36798,0.33158 0.91997,0.49641 1.65598,0.4945 0.86822,0.0182 1.92621,-0.44371 3.17396,-1.38574 1.24771,-0.94202 2.85769,-2.47342 4.82994,-4.59419 l -0.73599,-1.60998 -0.82799,-0.13799 c -1.12988,1.00145 -1.88312,1.64352 -2.25973,1.92622 -0.37663,0.28271 -0.63538,0.40729 -0.77623,0.37375 z m -18.74859,-12.37384 c -0.0125,-1.36751 -0.44755,-2.42741 -1.30523,-3.17971 -0.85771,-0.75226 -2.06328,-1.13367 -3.6167,-1.14424 -3.14331,0.13132 -5.8496,1.58221 -8.1189,4.3527 -2.26931,2.77052 -3.45762,6.07289 -3.56495,9.90712 0.022,2.48876 0.59895,4.44565 1.73072,5.87067 1.13178,1.42503 2.68617,2.15143 4.66319,2.17923 1.77576,-0.0355 3.47966,-0.62004 5.11169,-1.75373 1.632,-1.13369 2.8874,-2.60376 3.7662,-4.4102 l -1.51798,-1.83997 -0.78199,-0.092 c -0.65071,1.15766 -1.37329,2.05081 -2.16772,2.67946 -0.79446,0.62867 -1.62054,0.94683 -2.47822,0.95449 -0.92575,-0.0153 -1.63874,-0.42165 -2.13897,-1.21898 -0.50026,-0.79732 -0.75325,-1.89364 -0.75899,-3.28896 3.98756,-1.22664 6.85677,-2.53379 8.60763,-3.92145 1.75084,-1.38763 2.60758,-3.08578 2.57022,-5.09443 z m -6.53191,-0.276 c 0.48585,9.8e-4 0.8596,0.13706 1.12123,0.40825 0.26161,0.27122 0.39386,0.6718 0.39675,1.20173 0.0105,0.98229 -0.47055,1.8697 -1.44324,2.66222 -0.9727,0.79254 -2.50026,1.53045 -4.58269,2.21372 0.32295,-1.94059 0.89603,-3.49882 1.71923,-4.67469 0.82319,-1.17585 1.75276,-1.77959 2.78872,-1.81123 z m -11.52668,0.276 c -0.0125,-1.36751 -0.44755,-2.42741 -1.30524,-3.17971 -0.85771,-0.75226 -2.06328,-1.13367 -3.6167,-1.14424 -3.1433,0.13132 -5.8496,1.58221 -8.11889,4.3527 -2.26931,2.77052 -3.45763,6.07289 -3.56496,9.90712 0.022,2.48876 0.59895,4.44565 1.73073,5.87067 1.13177,1.42503 2.68617,2.15143 4.66319,2.17923 1.77576,-0.0355 3.47965,-0.62004 5.11168,-1.75373 1.63201,-1.13369 2.88741,-2.60376 3.76621,-4.4102 l -1.51799,-1.83997 -0.78198,-0.092 c -0.65072,1.15766 -1.37329,2.05081 -2.16773,2.67946 -0.79446,0.62867 -1.62053,0.94683 -2.47822,0.95449 -0.92574,-0.0153 -1.63873,-0.42165 -2.13897,-1.21898 -0.50025,-0.79732 -0.75325,-1.89364 -0.75899,-3.28896 3.98757,-1.22664 6.85678,-2.53379 8.60764,-3.92145 1.75084,-1.38763 2.60757,-3.08578 2.57022,-5.09443 z m -6.53192,-0.276 c 0.48586,9.8e-4 0.8596,0.13706 1.12124,0.40825 0.26161,0.27122 0.39385,0.6718 0.39674,1.20173 0.0105,0.98229 -0.47055,1.8697 -1.44323,2.66222 -0.97271,0.79254 -2.50027,1.53045 -4.58269,2.21372 0.32295,-1.94059 0.89602,-3.49882 1.71923,-4.67469 0.82319,-1.17585 1.75276,-1.77959 2.78871,-1.81123 z m -26.53541,17.34178 0.59799,0.73599 c 1.09631,-0.022 2.13513,-0.20796 3.11646,-0.55775 0.98131,-0.34978 1.53714,-0.73119 1.66748,-1.14423 l 0.50599,-4.23195 c 1.16435,-3.05128 2.38908,-5.38958 3.6742,-7.01491 1.2851,-1.62529 2.54433,-2.44562 3.77771,-2.46096 0.57976,0.023 1.03017,0.11501 1.35123,0.27599 0.32102,0.16101 0.48393,0.25301 0.48874,0.276 l 0.64399,-0.276 c 0.16002,-0.50118 0.27694,-0.94776 0.35075,-1.33973 0.0738,-0.39194 0.11019,-0.75801 0.10925,-1.09824 0.002,-0.98705 -0.16294,-1.85337 -0.4945,-2.59896 -0.33159,-0.74556 -0.84142,-1.38188 -1.52948,-1.90898 -0.9545,0.0738 -2.10448,0.97272 -3.44995,2.69672 -1.3455,1.72404 -2.54148,3.83042 -3.58796,6.31917 l -0.22999,0 c 0.36032,-1.95592 0.75514,-3.72498 1.18448,-5.30719 0.42932,-1.58216 0.66315,-2.41974 0.70149,-2.51271 l -0.50599,-0.73599 c -0.0454,0.005 -0.55257,0.0409 -1.52139,0.10733 -0.96883,0.0665 -2.12677,0.13291 -3.47381,0.19933 -1.34704,0.0665 -2.61061,0.10224 -3.79069,0.10733 l -0.45999,2.71397 1.60998,0 c 0.63632,-0.006 1.08865,0.13226 1.35698,0.41399 0.26832,0.28176 0.39866,0.74176 0.391,1.37998 -0.0129,0.49535 -0.14232,1.56603 -0.38812,3.21205 -0.24582,1.64605 -0.53044,3.44841 -0.85387,5.40709 -0.32344,1.95869 -0.60806,3.65468 -0.85386,5.08797 -0.24582,1.43329 -0.37519,2.18485 -0.38812,2.25469 z m -7.96674,-17.34178 c 0.5951,-0.002 1.14134,0.17443 1.63873,0.52899 0.49735,0.3546 0.96309,0.89892 1.39723,1.63298 l 1.28798,-0.092 1.93198,-4.41594 -0.184,-0.68999 c -0.54243,-0.32389 -1.20559,-0.57306 -1.98948,-0.74749 -0.78392,-0.17439 -1.60807,-0.26256 -2.47246,-0.2645 -3.1596,0.12556 -5.85631,1.57646 -8.09015,4.3527 -2.23385,2.77627 -3.40108,6.12464 -3.5017,10.04512 0.0201,2.46289 0.58936,4.39103 1.70772,5.78442 1.11836,1.3934 2.66509,2.10256 4.64019,2.12748 1.64064,-0.0393 3.24678,-0.6392 4.81844,-1.79973 1.57163,-1.16053 2.78678,-2.64592 3.64546,-4.45619 l -1.51799,-1.88598 -0.78199,-0.092 c -0.54338,1.16149 -1.19312,2.06998 -1.94922,2.72547 -0.75613,0.65549 -1.53237,0.98899 -2.32872,1.00048 -0.83758,-0.0115 -1.4969,-0.44849 -1.97797,-1.31098 -0.48109,-0.86248 -0.72642,-2.08147 -0.736,-3.65695 0.0393,-2.41879 0.4897,-4.4696 1.35124,-6.15242 0.86152,-1.6828 1.89842,-2.56062 3.11071,-2.63347 z m -26.19626,18.26177 c 4.04986,-0.045 7.24298,-0.96695 9.57938,-2.76572 2.33637,-1.79876 3.52852,-4.20415 3.57646,-7.21616 -0.14569,-2.39387 -1.17684,-4.23001 -3.09347,-5.50843 -1.91665,-1.27838 -3.84479,-2.40153 -5.78442,-3.36945 -0.93917,-0.54335 -1.70582,-1.12409 -2.29997,-1.74223 -0.59417,-0.61809 -0.90083,-1.32534 -0.91999,-2.12172 0.0268,-1.07905 0.46765,-1.95687 1.32248,-2.63347 0.85481,-0.67655 1.96263,-1.02538 3.32346,-1.04648 1.32822,-0.01 2.3057,0.2281 2.93246,0.71299 0.62673,0.48493 0.93722,1.27459 0.93149,2.36897 -0.0134,0.46193 -0.0671,0.96409 -0.161,1.50648 -0.0939,0.54243 -0.1476,0.83759 -0.16099,0.88548 l 0.36799,0.276 3.44996,-0.276 c 0.42643,-2.15907 0.8615,-3.9933 1.30523,-5.50268 0.44368,-1.50932 0.68326,-2.29706 0.71874,-2.36321 l -0.276,-0.598 c -0.0537,-0.0498 -0.82034,-0.24913 -2.29997,-0.59799 -1.47966,-0.3488 -3.35031,-0.54813 -5.61192,-0.59799 -3.76526,0.0556 -6.79164,0.99093 -9.07914,2.80596 -2.28751,1.81509 -3.46241,4.17639 -3.5247,7.08391 0.0901,2.11695 0.8644,3.78251 2.32297,4.99669 1.45855,1.2142 3.06087,2.24727 4.80694,3.09921 1.3263,0.67275 2.44562,1.37424 3.35795,2.10447 0.91231,0.73025 1.38764,1.59274 1.42598,2.58747 -0.0249,1.18928 -0.49259,2.13418 -1.40298,2.83471 -0.91042,0.70054 -2.11407,1.05895 -3.61095,1.07524 -1.83615,0.0374 -3.0513,-0.42837 -3.64545,-1.39724 -0.59417,-0.96885 -0.72833,-2.66508 -0.4025,-5.08868 l -3.81795,0.322 c -0.29421,1.99427 -0.64879,3.76716 -1.06374,5.31868 -0.41495,1.55152 -0.64303,2.36993 -0.68424,2.45522 l 0.322,0.64399 c 0.0441,0.0728 0.8069,0.36416 2.28847,0.87399 1.48156,0.50982 3.41737,0.80115 5.80742,0.87399 z m -16.86342,-17.98577 c -0.0125,-1.36751 -0.44755,-2.42741 -1.30524,-3.17971 -0.85771,-0.75226 -2.06328,-1.13367 -3.6167,-1.14424 -3.1433,0.13132 -5.8496,1.58221 -8.11889,4.3527 -2.26931,2.77052 -3.45763,6.07289 -3.56496,9.90712 0.022,2.48876 0.59895,4.44565 1.73073,5.87067 1.13177,1.42503 2.68617,2.15143 4.66319,2.17923 1.77576,-0.0355 3.47965,-0.62004 5.11168,-1.75373 1.63201,-1.13369 2.88741,-2.60376 3.76621,-4.4102 l -1.51799,-1.83997 -0.78198,-0.092 c -0.65072,1.15766 -1.37329,2.05081 -2.16773,2.67946 -0.79446,0.62867 -1.62053,0.94683 -2.47822,0.95449 -0.92574,-0.0153 -1.63873,-0.42165 -2.13897,-1.21898 -0.50025,-0.79732 -0.75325,-1.89364 -0.75899,-3.28896 3.98757,-1.22664 6.85678,-2.53379 8.60764,-3.92145 1.75084,-1.38763 2.60757,-3.08578 2.57022,-5.09443 z m -6.53192,-0.276 c 0.48586,9.8e-4 0.8596,0.13706 1.12124,0.40825 0.26161,0.27122 0.39385,0.6718 0.39674,1.20173 0.0105,0.98229 -0.47055,1.8697 -1.44323,2.66222 -0.97271,0.79254 -2.50027,1.53045 -4.58269,2.21372 0.32295,-1.94059 0.89602,-3.49882 1.71923,-4.67469 0.82319,-1.17585 1.75276,-1.77959 2.78871,-1.81123 z m -19.81742,8.46389 c -0.15079,0.63094 -0.35523,1.51061 -0.61332,2.639 -0.25813,1.12841 -0.49323,2.21593 -0.70533,3.26255 -0.21212,1.04664 -0.32456,1.76275 -0.33733,2.14835 -0.008,1.15765 0.65165,1.74031 1.97798,1.74798 0.81935,0.0412 1.81408,-0.37471 2.98421,-1.24774 1.17009,-0.87303 2.84332,-2.45042 5.01968,-4.73219 l -0.73599,-1.60998 -0.78199,-0.092 c -1.19025,1.02158 -1.96074,1.6694 -2.31147,1.94348 -0.35076,0.27408 -0.59226,0.39292 -0.72449,0.35649 l -0.18399,-0.18399 c 0.38785,-2.47828 0.83364,-4.88672 1.33739,-7.22532 0.5037,-2.33857 0.94609,-4.27338 1.32716,-5.80444 0.38104,-1.53102 0.5815,-2.32437 0.6014,-2.38004 l -0.59799,-0.69 -3.77195,-0.27599 -0.68999,0.36799 -0.64399,4.23195 c -1.46146,3.50747 -2.85102,6.32493 -4.1687,8.45239 -1.3177,2.12748 -2.35077,3.21996 -3.09921,3.27746 -0.36609,0.002 -0.63442,-0.10541 -0.80499,-0.322 -0.17059,-0.21657 -0.25492,-0.5539 -0.253,-1.01199 0.0488,-0.85495 0.39071,-2.39565 1.02562,-4.62208 0.6349,-2.22642 1.2698,-4.33274 1.90472,-6.31896 0.63489,-1.98619 0.97676,-3.04645 1.02561,-3.18077 l -0.55199,-0.73599 c -0.0454,0.005 -0.55257,0.0409 -1.52139,0.10733 -0.96883,0.0665 -2.12677,0.13291 -3.4738,0.19933 -1.34705,0.0665 -2.61062,0.10224 -3.7907,0.10733 l -0.45999,2.71397 1.56398,0 c 0.6162,-0.004 1.06277,0.11885 1.33973,0.36799 0.27695,0.24918 0.41303,0.64784 0.40825,1.19599 -0.0375,0.77604 -0.29986,1.99928 -0.7871,3.66973 -0.48726,1.67047 -0.97451,3.36393 -1.46176,5.08038 -0.48726,1.71646 -0.74963,3.0317 -0.7871,3.94572 0.0134,1.34932 0.49257,2.41114 1.43748,3.18546 0.9449,0.77432 2.27505,1.16915 3.99045,1.18449 1.12697,-0.82512 2.26546,-2.04985 3.41545,-3.67421 1.14997,-1.62435 2.31146,-3.66557 3.48446,-6.12367 z m -19.89634,4.23195 c 0.33924,-2.44156 0.79348,-5.24033 1.36273,-8.39633 0.56924,-3.15598 1.14998,-6.23362 1.74223,-9.23295 0.59223,-2.99928 1.09247,-5.48468 1.50073,-7.45621 0.40823,-1.97148 0.62098,-2.99353 0.63824,-3.06615 l -0.55199,-0.73599 c -0.0449,0.005 -0.55314,0.0409 -1.5248,0.10733 -0.97167,0.0665 -2.13756,0.13292 -3.49765,0.19933 -1.36012,0.0665 -2.64526,0.10226 -3.85544,0.10733 l -0.41399,2.71397 1.60998,0 c 0.6162,-0.003 1.06277,0.1294 1.33973,0.39674 0.27695,0.26741 0.41303,0.68715 0.40825,1.25924 -0.0218,0.51273 -0.23983,2.10929 -0.65406,4.78969 -0.41424,2.68044 -0.89388,5.71448 -1.43892,9.10213 -0.54505,3.38767 -1.02468,6.39872 -1.43892,9.03313 -0.41423,2.63443 -0.63225,4.16199 -0.65405,4.58269 0.008,1.43365 0.72832,2.15431 2.16197,2.16198 0.86824,0.0211 1.92622,-0.43508 3.17396,-1.36849 1.24773,-0.9334 2.8577,-2.47055 4.82994,-4.61144 l -0.73599,-1.60998 -0.82799,-0.092 c -1.10975,0.98133 -1.85724,1.61766 -2.24247,1.90898 -0.38525,0.29133 -0.64975,0.42166 -0.79349,0.39099 z m -28.3094,5.01393 c 0.97077,0.0163 2.13417,0.0872 3.4902,0.21275 1.35602,0.12554 2.46192,0.20796 3.31771,0.24725 3.80164,-0.0431 6.82418,-0.94587 9.06763,-2.70822 2.24341,-1.76235 3.39148,-4.12556 3.44421,-7.08966 -0.01,-1.45951 -0.48494,-2.72641 -1.42598,-3.8007 -0.9411,-1.07426 -2.29041,-1.89267 -4.04795,-2.45522 1.86775,-0.96788 3.28414,-2.11404 4.2492,-3.43845 0.965,-1.32438 1.44991,-2.81553 1.45473,-4.47344 -0.024,-2.0115 -0.82706,-3.55439 -2.40922,-4.6287 -1.58221,-1.07425 -3.79976,-1.61665 -6.65267,-1.62722 -0.0514,0.003 -0.4955,0.0273 -1.33228,0.0716 -0.8368,0.0443 -1.75793,0.0886 -2.76337,0.13289 -1.00547,0.0443 -1.78689,0.0682 -2.34426,0.0716 -0.56848,-0.002 -1.33286,-0.0136 -2.29316,-0.0358 -0.96032,-0.0221 -1.83374,-0.0443 -2.62026,-0.0664 -0.78654,-0.0221 -1.20337,-0.034 -1.2505,-0.0358 l -0.78199,2.75997 0.27599,0.36799 c 0.0316,-0.004 0.22137,-0.0191 0.56925,-0.046 0.34786,-0.0268 0.66411,-0.0421 0.94873,-0.046 0.52228,-0.0105 0.86919,0.16007 1.04074,0.51175 0.17153,0.35173 0.20795,0.9478 0.10925,1.78823 l -2.25397,18.03176 c -0.11213,1.1682 -0.43988,2.01727 -0.98324,2.54722 -0.54337,0.52995 -1.45761,0.90753 -2.74271,1.13274 l -0.69,3.03596 c 0.115,-0.0192 0.89699,-0.0958 2.34597,-0.23 1.44898,-0.13417 2.87496,-0.21083 4.27795,-0.23 z m 8.69389,-12.97183 c 1.28796,0.30572 2.25395,0.83279 2.89796,1.58123 0.64397,0.74846 0.96597,1.67803 0.96599,2.78871 -0.0173,1.6052 -0.47727,2.86826 -1.37998,3.7892 -0.90276,0.92095 -2.14474,1.39053 -3.72596,1.40874 -1.50649,0.008 -2.56448,-0.20316 -3.17396,-0.6325 -0.6095,-0.42932 -0.8395,-1.12314 -0.68999,-2.08147 l 1.05799,-6.80791 z m -3.49596,-3.95595 c 0.16674,-1.10972 0.37373,-2.4322 0.62099,-3.96745 0.24724,-1.53521 0.50023,-2.97269 0.75899,-4.31244 0.0584,-0.31622 0.14853,-0.53472 0.27025,-0.6555 0.12169,-0.12072 0.33828,-0.17822 0.64974,-0.17249 1.88021,-0.004 3.27169,0.31435 4.17445,0.95449 0.90272,0.64018 1.35121,1.62533 1.34548,2.95546 -0.0455,1.43054 -0.36347,2.55611 -0.95406,3.37669 -0.59063,0.82063 -1.18124,1.40102 -1.77183,1.74117 -0.59063,0.34018 -0.90865,0.50487 -0.95406,0.49407 -0.51463,-0.0172 -1.30237,-0.0862 -2.36322,-0.207 -1.06088,-0.12073 -1.65312,-0.18973 -1.77673,-0.207 z m -20.03738,-0.50599 c -0.0125,-1.36751 -0.44756,-2.42741 -1.30524,-3.17971 -0.85771,-0.75226 -2.06328,-1.13367 -3.6167,-1.14424 -3.1433,0.13132 -5.8496,1.58221 -8.1189,4.3527 -2.2693,2.77052 -3.45762,6.07289 -3.56495,9.90712 0.022,2.48876 0.59895,4.44565 1.73073,5.87067 1.13177,1.42503 2.68617,2.15143 4.66319,2.17923 1.77576,-0.0355 3.47965,-0.62004 5.11168,-1.75373 1.63201,-1.13369 2.88741,-2.60376 3.7662,-4.4102 l -1.51798,-1.83997 -0.78199,-0.092 c -0.65071,1.15766 -1.37328,2.05081 -2.16772,2.67946 -0.79446,0.62867 -1.62053,0.94683 -2.47822,0.95449 -0.92574,-0.0153 -1.63873,-0.42165 -2.13897,-1.21898 -0.50025,-0.79732 -0.75325,-1.89364 -0.75899,-3.28896 3.98756,-1.22664 6.85677,-2.53379 8.60764,-3.92145 1.75083,-1.38763 2.60757,-3.08578 2.57022,-5.09443 z m -6.53192,-0.276 c 0.48586,9.8e-4 0.8596,0.13706 1.12124,0.40825 0.26161,0.27122 0.39385,0.6718 0.39674,1.20173 0.0105,0.98229 -0.47055,1.8697 -1.44323,2.66222 -0.97271,0.79254 -2.50027,1.53045 -4.58269,2.21372 0.32295,-1.94059 0.89602,-3.49882 1.71923,-4.67469 0.82318,-1.17585 1.75276,-1.77959 2.78871,-1.81123 z m -16.64562,12.64984 c 0.23027,-1.02874 0.61303,-2.31899 1.14829,-3.87077 0.53522,-1.55176 1.03723,-3.08053 1.50605,-4.58631 0.46878,-1.50575 0.71865,-2.70401 0.74962,-3.59477 -0.024,-1.40296 -0.50506,-2.52995 -1.44323,-3.38095 -0.93822,-0.85097 -2.18978,-1.28797 -3.7547,-1.31099 -1.15575,0.69864 -2.363236,1.92337 -3.622456,3.67421 -1.259245,1.75087 -2.535727,3.97608 -3.82945,6.67566 l -0.275997,-0.046 c 0.529552,-3.4099 1.116185,-6.76104 1.759902,-10.05343 0.643698,-3.29234 1.203073,-6.03015 1.678127,-8.21345 0.475031,-2.18323 0.724336,-3.31618 0.747917,-3.39884 l -0.551993,-0.73599 c -0.04573,0.005 -0.557399,0.0409 -1.535018,0.10733 -0.977639,0.0665 -2.146932,0.13292 -3.507881,0.19933 -1.360963,0.0665 -2.63929,0.10226 -3.834986,0.10733 l -0.413995,2.71397 1.609979,0 c 0.660278,-0.008 1.122188,0.13419 1.385732,0.42549 0.263533,0.29136 0.368948,0.77819 0.316246,1.46048 -0.08961,0.80586 -0.356023,2.67291 -0.79924,5.60115 -0.443228,2.92829 -0.939638,6.15376 -1.489231,9.67641 -0.5496,3.52268 -1.02876,6.57852 -1.437481,9.16754 -0.408726,2.58902 -0.623389,3.9472 -0.643991,4.07454 l 0.597992,0.73599 c 1.096315,-0.022 2.135134,-0.20796 3.11646,-0.55775 0.981315,-0.34978 1.53714,-0.73119 1.667478,-1.14423 l 0.413995,-3.31196 c 1.34164,-3.36753 2.637289,-6.07383 3.886949,-8.11889 1.249638,-2.04505 2.269291,-3.09536 3.058962,-3.15096 0.371814,0.004 0.66314,0.14568 0.87399,0.42549 0.21081,0.27985 0.31814,0.67468 0.32199,1.18449 -0.0392,0.89558 -0.31349,2.19151 -0.822874,3.8878 -0.509415,1.69631 -1.018816,3.38749 -1.528203,5.07356 -0.509414,1.68608 -0.783706,2.96157 -0.822878,3.82647 -1.2e-5,0.68808 0.183985,1.1979 0.551993,1.52948 0.367982,0.33158 0.919974,0.49641 1.655979,0.4945 0.842343,0.024 1.883083,-0.42646 3.122213,-1.35124 1.23909,-0.92478 2.86631,-2.46767 4.88168,-4.62869 l -0.73599,-1.60998 -0.82799,-0.13799 c -1.12988,1.00145 -1.88312,1.64352 -2.25972,1.92622 -0.37664,0.28271 -0.63538,0.40729 -0.77624,0.37375 z m -33.847978,-2.52997 c -0.185925,1.9109 -0.596086,3.17205 -1.230485,3.78345 -0.634416,0.61141 -1.895565,0.97557 -3.783451,1.09249 l -0.73599,2.98996 c 0.04656,-0.003 0.510532,-0.0273 1.391907,-0.0716 0.881365,-0.0443 1.900734,-0.0886 3.058108,-0.13288 1.157359,-0.0443 2.173321,-0.0682 3.047888,-0.0716 0.834509,0.002 1.853877,0.0182 3.058109,0.0477 1.204203,0.0295 2.278089,0.0591 3.221662,0.0886 0.943537,0.0295 1.44158,0.0454 1.494129,0.0477 l 0.78199,-3.08196 -0.137998,-0.23 c -0.01535,0.006 -0.249183,0.0288 -0.701492,0.069 -0.452346,0.0402 -1.031171,0.0632 -1.736477,0.069 -0.730257,0.006 -1.25925,-0.17824 -1.58698,-0.55199 -0.327761,-0.37374 -0.488759,-0.97174 -0.482993,-1.79398 0.02156,-0.70872 0.218623,-2.41922 0.591177,-5.13149 0.372522,-2.71225 0.791059,-5.57784 1.255612,-8.59678 0.464521,-3.0189 0.845577,-5.34272 1.143172,-6.97146 2.142786,-0.008 3.457601,0.36419 3.944449,1.11548 0.486805,0.75135 0.674636,2.48016 0.563493,5.18644 l 3.817951,-0.276 c -9.84e-4,-0.1121 0.05843,-1.12984 0.178248,-3.05321 0.119763,-1.92333 0.305677,-4.07955 0.557743,-6.46867 l -0.413995,-0.50599 -4.64594,0.50599 -13.891821,0 -4.323945,-0.50599 -0.597992,0.50599 c -0.352665,2.36037 -0.716827,4.55109 -1.092487,6.57217 -0.375664,2.02112 -0.578827,3.09635 -0.609491,3.22571 l 3.817951,-0.276 c 0.48682,-2.53378 1.088645,-4.17059 1.805476,-4.91044 0.716816,-0.7398 2.215629,-1.11162 4.496443,-1.11548 z" />
    </g>
  </g>
</svg>
