<?xml version="1.0" encoding="UTF-8" standalone="no"?>
<!-- Created with Inkscape (http://www.inkscape.org/) -->

<svg
   xmlns:dc="http://purl.org/dc/elements/1.1/"
   xmlns:cc="http://creativecommons.org/ns#"
   xmlns:rdf="http://www.w3.org/1999/02/22-rdf-syntax-ns#"
   xmlns:svg="http://www.w3.org/2000/svg"
   xmlns="http://www.w3.org/2000/svg"
   xmlns:sodipodi="http://sodipodi.sourceforge.net/DTD/sodipodi-0.dtd"
   xmlns:inkscape="http://www.inkscape.org/namespaces/inkscape"
   width="269.88"
   height="26.567657"
   id="svg3001"
   version="1.1"
   inkscape:version="0.48.4 r9939"
   sodipodi:docname="tbsod-320.svg">
  <defs
     id="defs3003" />
  <sodipodi:namedview
     id="base"
     pagecolor="#ffffff"
     bordercolor="#666666"
     borderopacity="1.0"
     inkscape:pageopacity="0.0"
     inkscape:pageshadow="2"
     inkscape:zoom="1"
     inkscape:cx="139.06734"
     inkscape:cy="-27.221831"
     inkscape:document-units="px"
     inkscape:current-layer="layer1"
     showgrid="false"
     fit-margin-top="0"
     fit-margin-left="0"
     fit-margin-right="0"
     fit-margin-bottom="0"
     inkscape:window-width="1304"
     inkscape:window-height="745"
     inkscape:window-x="54"
     inkscape:window-y="-8"
     inkscape:window-maximized="1" />
  <metadata
     id="metadata3006">
    <rdf:RDF>
      <cc:Work
         rdf:about="">
        <dc:format>image/svg+xml</dc:format>
        <dc:type
           rdf:resource="http://purl.org/dc/dcmitype/StillImage" />
        <dc:title></dc:title>
      </cc:Work>
    </rdf:RDF>
  </metadata>
  <g
     inkscape:label="Layer 1"
     inkscape:groupmode="layer"
     id="layer1"
     transform="translate(-86.173281,-326.61415)">
    <g
       style="font-size:27px;font-style:oblique;font-variant:normal;font-weight:normal;font-stretch:normal;line-height:125%;letter-spacing:0px;word-spacing:0px;fill:#000000;fill-opacity:1;stroke:none;font-family:Alegreya;-inkscape-font-specification:Sans Oblique"
       id="text3009">
      <path
         id="path3052"
         style="font-weight:900;text-align:start;writing-mode:lr-tb;text-anchor:start;font-family:Alegreya;-inkscape-font-specification:Alegreya Heavy Oblique"
         d="m 353.40732,342.32794 c 0.0877,-0.40915 0.25732,-1.00381 0.509,-1.78397 0.25165,-0.78015 0.49131,-1.55881 0.71899,-2.33597 0.22765,-0.77715 0.34931,-1.36581 0.36499,-1.76598 -0.0107,-0.91179 -0.36732,-1.61941 -1.06986,-2.12285 -0.70256,-0.50342 -1.68693,-0.75879 -2.95309,-0.76611 -0.48712,0.32457 -0.99787,0.89719 -1.53223,1.71785 -0.53437,0.82069 -1.08561,1.88605 -1.65373,3.19608 l -0.18899,0.027 c 0.28199,-1.68663 0.59098,-3.39227 0.92698,-5.11693 0.33599,-1.72463 0.62699,-3.17628 0.87299,-4.35495 0.24599,-1.17863 0.37499,-1.79229 0.387,-1.84097 l -0.405,-0.56699 c -0.031,0.004 -0.383,0.032 -1.05598,0.084 -0.673,0.052 -1.48099,0.10401 -2.42397,0.15599 -0.94299,0.052 -1.83498,0.08 -2.67597,0.084 l -0.32399,2.21397 0.75599,0 c 0.36168,-0.006 0.6103,0.0799 0.74586,0.2565 0.13556,0.17664 0.17493,0.47814 0.11813,0.90449 -0.0982,0.6125 -0.27978,1.74831 -0.54464,3.40744 -0.26486,1.65915 -0.55019,3.44718 -0.85597,5.36407 -0.30579,1.91691 -0.56917,3.56825 -0.79016,4.95401 -0.22099,1.38578 -0.33673,2.11153 -0.3472,2.17727 l 0.53999,0.621 c 1.05749,-0.0112 1.96647,-0.15075 2.72697,-0.4185 0.76048,-0.26775 1.18348,-0.59624 1.26898,-0.98549 l 0.189,-1.59298 c 0.60973,-1.71841 1.19248,-3.10776 1.74823,-4.16807 0.55573,-1.06029 0.98998,-1.60591 1.30273,-1.63685 0.32399,-0.004 0.48598,0.2475 0.48599,0.75599 -0.0203,0.38234 -0.16267,1.01266 -0.42699,1.89097 -0.26434,0.87833 -0.52867,1.76265 -0.79299,2.65297 -0.26434,0.89032 -0.40667,1.54465 -0.427,1.96298 -0.003,0.55068 0.13837,0.95455 0.42525,1.2116 0.28686,0.25706 0.73911,0.38419 1.35673,0.38138 0.72054,0.0247 1.50016,-0.2745 2.33885,-0.89774 0.83866,-0.62324 1.94902,-1.71898 3.33108,-3.28721 l -0.513,-1.29598 -0.64799,-0.108 c -0.53438,0.48318 -0.88987,0.79255 -1.06648,0.92811 -0.17664,0.13556 -0.28914,0.19519 -0.3375,0.17887 z m -12.88106,-0.94498 c -0.39769,0.45224 -0.71606,0.76949 -0.95511,0.95173 -0.23907,0.18225 -0.44269,0.27 -0.61087,0.26325 -0.20081,0.002 -0.33919,-0.0624 -0.41512,-0.19237 -0.0759,-0.12993 -0.0996,-0.33581 -0.0709,-0.61762 l 0.94499,-5.18393 0.35099,-0.216 2.53797,0.027 0.324,-2.02497 -0.189,-0.189 -2.56497,0 c 0.20024,-0.95398 0.38699,-1.78646 0.56024,-2.49747 0.17324,-0.71098 0.26549,-1.08447 0.27675,-1.12048 l -0.37799,-0.324 -4.53595,0.94499 c -0.004,0.0388 -0.0433,0.36619 -0.11812,0.98211 -0.0748,0.61594 -0.16144,1.28756 -0.25987,2.01485 l -1.94398,0.29699 -0.21599,1.78198 0.081,0.135 1.45798,0 0.24299,0.216 -1.18798,6.69591 c -0.12656,1.15593 0.11981,2.05029 0.73911,2.68309 0.61931,0.63281 1.56092,0.95343 2.82484,0.96186 0.42243,-0.0169 1.0153,-0.39487 1.77861,-1.13398 0.76329,-0.73912 1.59241,-1.7381 2.48734,-2.99696 l -0.56699,-1.34999 z m -10.16133,1.02598 c 0.19815,-1.18531 0.41982,-2.37863 0.66499,-3.57995 0.24515,-1.20131 0.45882,-2.21063 0.64099,-3.02796 0.18215,-0.81731 0.27782,-1.24264 0.287,-1.27599 l -0.216,-0.62099 -3.61795,-0.32399 -0.51299,0.32399 -0.135,0.54 -1.94398,-0.54 c -1.13016,0.03 -2.21481,0.47701 -3.25396,1.34098 -1.03915,0.864 -1.89381,1.96499 -2.56396,3.30296 -0.67016,1.33799 -1.01682,2.73297 -1.03999,4.18495 0.01,1.34605 0.36843,2.38666 1.07661,3.12183 0.70818,0.73518 1.70829,1.10755 3.00034,1.11711 0.55461,-0.37518 1.1126,-0.9208 1.67398,-1.63685 0.56136,-0.71605 1.20035,-1.70041 1.91697,-2.95309 l 0.27,0 c -0.26438,1.09405 -0.44438,1.87592 -0.53999,2.3456 -0.0956,0.46968 -0.14064,0.7858 -0.135,0.94836 -10e-6,0.86399 0.45898,1.29598 1.37698,1.29598 0.72617,0.0315 1.50128,-0.25424 2.32534,-0.85723 0.82404,-0.603 1.9569,-1.71223 3.39859,-3.32771 l -0.54,-1.29599 -0.62099,-0.10799 c -0.45001,0.42412 -0.7785,0.71662 -0.98549,0.87748 -0.20701,0.16088 -0.3465,0.23738 -0.41849,0.2295 z m -6.37192,0.378 c -0.11025,-0.008 -0.20025,-0.17381 -0.26999,-0.49612 -0.0698,-0.3223 -0.10576,-0.75092 -0.108,-1.28586 0.014,-1.04004 0.13443,-1.9974 0.36112,-2.87209 0.22668,-0.87466 0.4753,-1.33928 0.74586,-1.39385 0.28574,5.7e-4 0.59849,0.0602 0.93824,0.17887 0.33974,0.11869 0.69298,0.29307 1.05974,0.52312 -0.39544,1.35674 -0.86681,2.57172 -1.41411,3.64495 -0.54731,1.07324 -0.98493,1.64023 -1.31286,1.70098 z m -5.44564,-6.15592 c -0.0118,-0.94104 -0.34594,-1.67791 -1.00236,-2.2106 -0.65644,-0.53267 -1.5643,-0.80379 -2.72359,-0.81336 -2.13636,0.0619 -3.92508,0.88312 -5.36618,2.46371 -1.44111,1.58062 -2.19035,3.54934 -2.24772,5.90618 0.0174,1.53111 0.4213,2.74159 1.21161,3.63145 0.7903,0.88986 1.86241,1.34436 3.21633,1.36348 1.29654,-0.0264 2.51715,-0.4123 3.66183,-1.15761 1.14466,-0.7453 1.96702,-1.69141 2.46709,-2.83833 l -1.40398,-1.56598 -0.59399,-0.081 c -0.37576,0.65868 -0.765,1.14355 -1.16774,1.4546 -0.40275,0.31107 -0.8325,0.46519 -1.28923,0.46237 -0.43144,-10e-4 -0.77006,-0.11362 -1.01586,-0.33749 -0.24582,-0.22387 -0.40219,-0.55237 -0.46912,-0.98549 2.39452,-0.70142 4.11912,-1.45179 5.1738,-2.2511 1.05467,-0.79929 1.57104,-1.8129 1.54911,-3.04083 z m -4.72494,0.21599 c 0.2053,0.002 0.36843,0.0585 0.48937,0.16875 0.12093,0.11026 0.1828,0.26101 0.18562,0.45225 -0.002,0.40725 -0.22106,0.80099 -0.65811,1.18123 -0.43707,0.38025 -1.08168,0.7335 -1.93385,1.05974 0.13724,-0.93429 0.36899,-1.64416 0.69524,-2.1296 0.32624,-0.48542 0.73348,-0.72954 1.22173,-0.73237 z m -17.28422,10.12487 c 3.17469,-0.0456 5.69466,-1.06817 7.5599,-3.06783 1.86521,-1.99966 2.81919,-4.703 2.86196,-8.11002 -0.0129,-2.24321 -0.67557,-3.93294 -1.98785,-5.06919 -1.31231,-1.13622 -3.19666,-1.70546 -5.65305,-1.70772 -0.0285,0.002 -0.29551,0.016 -0.80099,0.042 -0.5055,0.026 -1.0785,0.052 -1.71898,0.078 -0.6405,0.026 -1.17749,0.04 -1.61098,0.042 -0.38966,-9.8e-4 -0.89732,-0.008 -1.52298,-0.021 -0.62566,-0.013 -1.19132,-0.026 -1.69698,-0.039 -0.50566,-0.013 -0.77332,-0.02 -0.80299,-0.021 l -0.51299,2.18698 0.216,0.37799 c 0.0112,-0.002 0.1035,-0.0112 0.27674,-0.027 0.17325,-0.0157 0.36,-0.0247 0.56025,-0.027 0.24018,-0.0101 0.3943,0.0911 0.46237,0.30375 0.068,0.21263 0.0669,0.59738 -0.003,1.15423 l -1.10698,9.04489 c -0.108,0.76499 -0.30375,1.30723 -0.58725,1.62673 -0.28349,0.31949 -0.73574,0.52424 -1.35673,0.61424 l -0.53999,2.51097 c 0.0669,-0.009 0.5203,-0.045 1.36011,-0.108 0.8398,-0.063 1.66441,-0.099 2.47384,-0.108 0.89267,0.0135 1.78703,0.0675 2.68309,0.162 0.89604,0.0945 1.37866,0.14849 1.44786,0.16199 z m 1.72797,-14.52581 c 0.90673,-0.0163 1.55022,0.23907 1.93048,0.76612 0.38023,0.52706 0.56473,1.42368 0.55349,2.68984 -0.003,2.52953 -0.32794,4.44313 -0.97536,5.7408 -0.64744,1.29767 -1.6003,1.94904 -2.85859,1.9541 -0.25369,0.005 -0.43481,-0.0585 -0.54337,-0.189 -0.10857,-0.1305 -0.16144,-0.35549 -0.15862,-0.67499 0.006,-0.108 0.0716,-0.60074 0.19701,-1.47823 0.12536,-0.87748 0.27456,-1.89672 0.44761,-3.05771 0.17303,-1.16098 0.33404,-2.22071 0.48304,-3.17921 0.14898,-0.95848 0.25009,-1.57272 0.30332,-1.84273 0.0495,-0.27842 0.11924,-0.47079 0.20925,-0.57712 0.09,-0.10629 0.22724,-0.15692 0.41174,-0.15187 z m -21.51593,3.96895 1.99798,0 0.29699,0.27 -0.67499,9.74687 c -0.0118,0.15862 -0.0152,0.37462 -0.0101,0.64799 0.005,0.27337 0.008,0.54337 0.0101,0.80999 -0.009,0.72899 -0.17325,1.27573 -0.49274,1.64023 -0.3195,0.36449 -0.74024,0.54674 -1.26224,0.54674 -0.63955,0.009 -1.10867,-0.15075 -1.40735,-0.47924 -0.29868,-0.3285 -0.47756,-0.87974 -0.53662,-1.65373 l -0.53999,0 c -0.33018,0.41343 -0.68231,0.9703 -1.05637,1.67061 -0.37405,0.70029 -0.65192,1.33141 -0.83361,1.89335 0.19631,0.48317 0.62718,0.88029 1.29261,1.19136 0.66543,0.31105 1.44054,0.47192 2.32534,0.48261 1.45686,-0.0748 2.84959,-0.75543 4.1782,-2.04184 1.3286,-1.28643 2.11384,-2.72978 2.35572,-4.33007 l 1.10699,-10.28687 0.21599,-0.135 3.29396,0.027 0.324,-2.02497 -0.189,-0.189 -3.37496,0 0.243,-2.15997 c 0.0995,-0.82685 0.29192,-1.4141 0.57712,-1.76173 0.28517,-0.34761 0.71379,-0.51635 1.28585,-0.50624 0.3133,-0.006 0.65192,0.0799 1.01587,0.25649 0.36392,0.17664 0.81729,0.47814 1.3601,0.90449 l 0.54,-0.081 1.59298,-3.53695 -0.108,-0.297 c -0.37801,-0.12317 -0.837,-0.22104 -1.37698,-0.29362 -0.54001,-0.0725 -1.08,-0.10967 -1.61998,-0.11137 -1.18783,0.0195 -2.36115,0.32851 -3.51996,0.92698 -1.15882,0.59851 -2.14214,1.3695 -2.94996,2.31297 -0.80783,0.94351 -1.27915,1.94249 -1.41398,2.99697 l -0.135,1.29598 -2.37597,0.35099 -0.216,1.78198 z m -7.00194,7.6679 c -0.36281,0.004 -0.62943,-0.21318 -0.79986,-0.65137 -0.17044,-0.43817 -0.25482,-1.12104 -0.25312,-2.04859 0.004,-1.4186 0.13049,-2.53009 0.37799,-3.33446 0.24749,-0.80436 0.58949,-1.21385 1.02599,-1.22849 0.37349,-0.0124 0.63898,0.18114 0.79649,0.5805 0.15749,0.39938 0.23399,1.07887 0.2295,2.03847 0.003,1.6228 -0.10463,2.80516 -0.324,3.54708 -0.21938,0.74193 -0.57037,1.10755 -1.05299,1.09686 z m -1.02598,2.88896 c 2.22915,-0.0332 3.99425,-0.7903 5.2953,-2.27134 1.30104,-1.48104 1.9659,-3.48689 1.9946,-6.01755 -0.006,-1.65372 -0.41963,-2.91595 -1.24198,-3.7867 -0.82238,-0.87073 -2.01936,-1.30947 -3.59095,-1.31623 -2.22917,0.0321 -3.99427,0.77119 -5.29531,2.21734 -1.30105,1.44618 -1.96591,3.40703 -1.9946,5.88255 0.009,1.69705 0.42974,3.0009 1.26223,3.91158 0.83249,0.91067 2.02272,1.37079 3.57071,1.38035 z m -11.33545,-4.64394 c 0.0876,-0.40915 0.25732,-1.00381 0.50899,-1.78397 0.25165,-0.78015 0.49132,-1.55881 0.71899,-2.33597 0.22765,-0.77715 0.34932,-1.36581 0.365,-1.76598 -0.0107,-0.91179 -0.36732,-1.61941 -1.06986,-2.12285 -0.70257,-0.50342 -1.68693,-0.75879 -2.95309,-0.76611 -0.48713,0.32457 -0.99787,0.89719 -1.53223,1.71785 -0.53438,0.82069 -1.08562,1.88605 -1.65373,3.19608 l -0.189,0.027 c 0.16706,-1.03104 0.35268,-1.9524 0.55687,-2.76409 0.20418,-0.81166 0.31555,-1.24028 0.33412,-1.28585 l -0.37799,-0.567 c -0.0298,0.004 -0.37217,0.032 -1.02699,0.084 -0.65483,0.052 -1.44315,0.10401 -2.36497,0.156 -0.92182,0.052 -1.79814,0.08 -2.62896,0.084 l -0.324,2.21397 0.75599,0 c 0.36168,-0.006 0.6103,0.0799 0.74586,0.2565 0.13556,0.17663 0.17494,0.47812 0.11813,0.90448 -0.0938,0.59967 -0.25117,1.57833 -0.472,2.93597 -0.22083,1.35765 -0.42816,2.6283 -0.62199,3.81195 -0.19383,1.18365 -0.29716,1.81431 -0.30999,1.89197 l 0.53999,0.621 c 1.05748,-0.0112 1.96647,-0.15075 2.72696,-0.4185 0.76049,-0.26775 1.18348,-0.59624 1.26899,-0.98549 l 0.189,-1.59298 c 0.60973,-1.71841 1.19247,-3.10776 1.74822,-4.16807 0.55574,-1.06029 0.98998,-1.60591 1.30274,-1.63685 0.32398,-0.004 0.48598,0.2475 0.48599,0.75599 -0.0203,0.38234 -0.16267,1.01266 -0.42699,1.89097 -0.26434,0.87833 -0.52867,1.76265 -0.79299,2.65297 -0.26434,0.89032 -0.40667,1.54465 -0.427,1.96298 -0.003,0.55068 0.13837,0.95455 0.42525,1.2116 0.28686,0.25706 0.7391,0.38419 1.35673,0.38138 0.72054,0.0247 1.50016,-0.2745 2.33884,-0.89774 0.83867,-0.62324 1.94903,-1.71898 3.33109,-3.28721 l -0.513,-1.29598 -0.64799,-0.108 c -0.53438,0.48318 -0.88988,0.79255 -1.06649,0.92811 -0.17663,0.13556 -0.28913,0.19519 -0.33749,0.17887 z m -12.08756,-5.69692 c -0.0118,-0.94104 -0.34594,-1.67791 -1.00236,-2.2106 -0.65644,-0.53267 -1.5643,-0.80379 -2.72359,-0.81336 -2.13635,0.0619 -3.92508,0.88312 -5.36618,2.46371 -1.44111,1.58062 -2.19035,3.54934 -2.24772,5.90618 0.0174,1.53111 0.42131,2.74159 1.21161,3.63145 0.7903,0.88986 1.86241,1.34436 3.21633,1.36348 1.29654,-0.0264 2.51715,-0.4123 3.66183,-1.15761 1.14466,-0.7453 1.96703,-1.69141 2.46709,-2.83833 l -1.40398,-1.56598 -0.59399,-0.081 c -0.37575,0.65868 -0.765,1.14355 -1.16774,1.4546 -0.40275,0.31107 -0.83249,0.46519 -1.28923,0.46237 -0.43144,-10e-4 -0.77006,-0.11362 -1.01586,-0.33749 -0.24582,-0.22387 -0.40219,-0.55237 -0.46912,-0.98549 2.39452,-0.70142 4.11912,-1.45179 5.17381,-2.2511 1.05466,-0.79929 1.57103,-1.8129 1.5491,-3.04083 z m -4.72494,0.21599 c 0.20531,0.002 0.36843,0.0585 0.48937,0.16875 0.12093,0.11026 0.18281,0.26101 0.18563,0.45225 -0.002,0.40725 -0.22107,0.80099 -0.65812,1.18123 -0.43706,0.38025 -1.08168,0.7335 -1.93385,1.05974 0.13724,-0.93429 0.36899,-1.64416 0.69524,-2.1296 0.32624,-0.48542 0.73348,-0.72954 1.22173,-0.73237 z m -6.87662,-0.21599 c -0.0118,-0.94104 -0.34594,-1.67791 -1.00236,-2.2106 -0.65644,-0.53267 -1.5643,-0.80379 -2.72359,-0.81336 -2.13635,0.0619 -3.92508,0.88312 -5.36618,2.46371 -1.44111,1.58062 -2.19035,3.54934 -2.24772,5.90618 0.0174,1.53111 0.4213,2.74159 1.21161,3.63145 0.7903,0.88986 1.86241,1.34436 3.21633,1.36348 1.29654,-0.0264 2.51715,-0.4123 3.66183,-1.15761 1.14466,-0.7453 1.96702,-1.69141 2.46709,-2.83833 l -1.40398,-1.56598 -0.59399,-0.081 c -0.37576,0.65868 -0.765,1.14355 -1.16774,1.4546 -0.40275,0.31107 -0.83249,0.46519 -1.28923,0.46237 -0.43144,-10e-4 -0.77006,-0.11362 -1.01586,-0.33749 -0.24582,-0.22387 -0.40219,-0.55237 -0.46912,-0.98549 2.39452,-0.70142 4.11912,-1.45179 5.17381,-2.2511 1.05466,-0.79929 1.57103,-1.8129 1.5491,-3.04083 z m -4.72494,0.21599 c 0.2053,0.002 0.36843,0.0585 0.48937,0.16875 0.12093,0.11026 0.1828,0.26101 0.18562,0.45225 -0.002,0.40725 -0.22106,0.80099 -0.65811,1.18123 -0.43707,0.38025 -1.08168,0.7335 -1.93385,1.05974 0.13724,-0.93429 0.36899,-1.64416 0.69524,-2.1296 0.32624,-0.48542 0.73348,-0.72954 1.22173,-0.73237 z m -17.44234,9.36888 0.53999,0.621 c 1.05749,-0.0112 1.96647,-0.15075 2.72697,-0.4185 0.76048,-0.26775 1.18348,-0.59624 1.26898,-0.98549 l 0.216,-1.86297 c 0.5788,-1.6436 1.17616,-2.86533 1.7921,-3.66521 0.61592,-0.79985 1.26054,-1.1981 1.93385,-1.19473 0.44942,0.0225 0.79929,0.11251 1.04961,0.27 0.2503,0.1575 0.37742,0.2475 0.38137,0.26999 l 0.513,-0.24299 c 0.16086,-0.42805 0.27786,-0.80042 0.35099,-1.11711 0.0731,-0.31668 0.10911,-0.6013 0.108,-0.85387 5.5e-4,-0.78185 -0.13557,-1.45909 -0.40837,-2.03172 -0.27282,-0.57261 -0.68569,-1.04735 -1.23861,-1.42423 -0.47644,0.0394 -1.03556,0.48038 -1.67735,1.32298 -0.64182,0.84262 -1.18068,1.85061 -1.61661,3.02396 l -0.18899,0.027 c 0.1378,-0.89042 0.29417,-1.68803 0.46911,-2.39284 0.17493,-0.7048 0.27056,-1.07717 0.28688,-1.11711 l -0.378,-0.567 c -0.0298,0.004 -0.37217,0.032 -1.02699,0.084 -0.65483,0.052 -1.44315,0.10401 -2.36497,0.156 -0.92182,0.052 -1.79814,0.08 -2.62896,0.084 l -0.324,2.21397 0.75599,0 c 0.30881,-0.002 0.53493,0.0692 0.67837,0.21262 0.14343,0.14345 0.21431,0.36957 0.21262,0.67837 -0.007,0.27528 -0.082,0.87222 -0.22359,1.79083 -0.14161,0.91863 -0.30558,1.92479 -0.4919,3.01848 -0.18633,1.0937 -0.35029,2.0408 -0.4919,2.84129 -0.14161,0.8005 -0.21614,1.22026 -0.22359,1.25928 z m -4.55169,-9.36888 c 0.33412,-0.002 0.63111,0.11026 0.89099,0.3375 0.25986,0.22726 0.50286,0.58275 0.72899,1.06649 l 1.16099,-0.027 1.37698,-3.48296 -0.108,-0.48599 c -0.37407,-0.20417 -0.82069,-0.3628 -1.33986,-0.47587 -0.51919,-0.11305 -1.05356,-0.17042 -1.6031,-0.17212 -2.13523,0.0619 -3.91946,0.89662 -5.35268,2.50421 -1.43324,1.60762 -2.17798,3.61684 -2.23422,6.02768 0.0152,1.48892 0.41005,2.66228 1.18461,3.52008 0.77455,0.8578 1.83766,1.29542 3.18933,1.31285 1.14973,-0.0304 2.25896,-0.43537 3.32771,-1.21498 1.06872,-0.77961 1.84046,-1.7516 2.31522,-2.91596 l -1.40398,-1.56598 -0.567,-0.081 c -0.30038,0.65025 -0.62437,1.14524 -0.97199,1.48498 -0.34762,0.33975 -0.69862,0.51075 -1.05298,0.51299 -0.42019,-0.002 -0.74081,-0.18055 -0.96186,-0.53662 -0.22107,-0.35605 -0.33244,-0.87917 -0.33412,-1.56935 0.009,-1.25154 0.17324,-2.26515 0.49274,-3.04084 0.31949,-0.77566 0.74023,-1.17503 1.26223,-1.19811 z m -16.0152,10.12487 c 2.73877,-0.0169 4.87512,-0.56361 6.40905,-1.64022 1.5339,-1.07661 2.31351,-2.58184 2.33884,-4.5157 -0.0827,-1.53616 -0.66657,-2.66902 -1.7516,-3.39858 -1.08506,-0.72954 -2.17517,-1.31566 -3.27033,-1.75835 -0.53719,-0.2503 -0.97481,-0.51242 -1.31286,-0.78637 -0.33807,-0.27392 -0.51244,-0.59679 -0.52312,-0.96861 0.008,-0.38585 0.16705,-0.70085 0.47587,-0.94499 0.3088,-0.2441 0.71717,-0.3701 1.22511,-0.37799 0.53042,-5.5e-4 0.94104,0.12882 1.23186,0.38812 0.29079,0.25932 0.43817,0.65194 0.44212,1.17786 -0.003,0.0906 -0.0169,0.23345 -0.0405,0.42862 -0.0236,0.1952 -0.0371,0.30432 -0.0405,0.32737 l 0.29699,0.216 3.18596,-0.216 c 0.26548,-1.25885 0.53773,-2.34558 0.81674,-3.26021 0.27898,-0.9146 0.42973,-1.39384 0.45225,-1.43773 l -0.27,-0.59399 c -0.0366,-0.0315 -0.54395,-0.15748 -1.52211,-0.378 -0.97818,-0.22048 -2.20779,-0.34648 -3.68882,-0.37799 -2.65273,0.0253 -4.75195,0.60244 -6.29767,1.73135 -1.54573,1.12894 -2.33547,2.65779 -2.36922,4.58657 0.0512,1.34886 0.49555,2.38385 1.33311,3.10496 0.83754,0.72112 1.76116,1.29711 2.77084,1.72797 0.75148,0.32626 1.38822,0.6525 1.91022,0.97874 0.52199,0.32625 0.79423,0.72 0.81674,1.18124 -0.007,0.36956 -0.16819,0.66318 -0.48262,0.88086 -0.31444,0.21769 -0.73856,0.32906 -1.27236,0.33412 -0.72787,-0.008 -1.24986,-0.25481 -1.56598,-0.73912 -0.31612,-0.4843 -0.43312,-1.15591 -0.35099,-2.01484 l -3.42896,0.24299 c -0.17718,0.96524 -0.40331,1.93048 -0.67837,2.89571 -0.27505,0.96524 -0.42693,1.48499 -0.45561,1.55924 l 0.26999,0.48599 c 0.0287,0.0484 0.53156,0.24187 1.50861,0.58049 0.97705,0.33862 2.25615,0.53212 3.83732,0.58049 z m -8.84005,-10.34086 c -0.0118,-0.94104 -0.34594,-1.67791 -1.00236,-2.2106 -0.65644,-0.53267 -1.5643,-0.80379 -2.72359,-0.81336 -2.13635,0.0619 -3.92508,0.88312 -5.36618,2.46371 -1.44111,1.58062 -2.19035,3.54934 -2.24772,5.90618 0.0174,1.53111 0.4213,2.74159 1.21161,3.63145 0.7903,0.88986 1.86241,1.34436 3.21633,1.36348 1.29654,-0.0264 2.51715,-0.4123 3.66183,-1.15761 1.14466,-0.7453 1.96703,-1.69141 2.46709,-2.83833 l -1.40398,-1.56598 -0.59399,-0.081 c -0.37576,0.65868 -0.765,1.14355 -1.16774,1.4546 -0.40275,0.31107 -0.83249,0.46519 -1.28923,0.46237 -0.43144,-10e-4 -0.77006,-0.11362 -1.01586,-0.33749 -0.24582,-0.22387 -0.40219,-0.55237 -0.46912,-0.98549 2.39452,-0.70142 4.11912,-1.45179 5.17381,-2.2511 1.05466,-0.79929 1.57103,-1.8129 1.5491,-3.04083 z m -4.72494,0.21599 c 0.20531,0.002 0.36843,0.0585 0.48937,0.16875 0.12093,0.11026 0.1828,0.26101 0.18562,0.45225 -0.002,0.40725 -0.22106,0.80099 -0.65811,1.18123 -0.43707,0.38025 -1.08168,0.7335 -1.93385,1.05974 0.13724,-0.93429 0.36899,-1.64416 0.69524,-2.1296 0.32624,-0.48542 0.73348,-0.72954 1.22173,-0.73237 z m -12.96676,5.10294 c -0.2582,1.05805 -0.45732,1.88491 -0.59737,2.48059 -0.14007,0.59568 -0.21094,1.0108 -0.21262,1.24536 -0.002,0.432 0.10967,0.75599 0.33412,0.97199 0.22442,0.216 0.57204,0.32399 1.04286,0.32399 0.72617,0.0315 1.50128,-0.25424 2.32534,-0.85723 0.82404,-0.603 1.9569,-1.71223 3.39858,-3.32771 l -0.53999,-1.29599 -0.62099,-0.10799 c -0.59176,0.53043 -0.96075,0.8533 -1.10699,0.96861 -0.14626,0.11531 -0.24526,0.16144 -0.29699,0.13837 l -0.108,-0.081 c 0.19782,-1.18531 0.41715,-2.37863 0.65799,-3.57995 0.24082,-1.20131 0.45015,-2.21063 0.62799,-3.02796 0.17782,-0.81731 0.27115,-1.24264 0.28,-1.27599 l -0.53999,-0.62099 -2.94297,-0.054 -0.53999,0.324 -0.297,2.42997 c -0.6345,1.76567 -1.23524,3.16853 -1.80222,4.20857 -0.567,1.04005 -1.01925,1.57217 -1.35674,1.59635 -0.2925,0.005 -0.4365,-0.19349 -0.43199,-0.59399 0.0243,-0.36332 0.19466,-1.13065 0.51099,-2.30197 0.31633,-1.17131 0.63265,-2.29463 0.94899,-3.36996 0.31632,-1.0753 0.48665,-1.65063 0.511,-1.72597 l -0.432,-0.54 c -0.0298,0.004 -0.37217,0.032 -1.02699,0.084 -0.65483,0.052 -1.44315,0.10401 -2.36497,0.156 -0.92182,0.052 -1.79814,0.08 -2.62896,0.084 l -0.324,2.21397 0.75599,0 c 0.30881,-0.002 0.53493,0.0692 0.67837,0.21262 0.14343,0.14345 0.21431,0.36957 0.21262,0.67837 -0.019,0.46517 -0.152,1.13383 -0.39899,2.00597 -0.247,0.87216 -0.494,1.74882 -0.741,2.62997 -0.24699,0.88116 -0.37999,1.56782 -0.39899,2.05997 0.009,0.9118 0.36224,1.61942 1.05974,2.12285 0.69749,0.50343 1.68522,0.7588 2.96321,0.76612 0.94498,-0.6525 1.99797,-2.29047 3.15896,-4.91394 z m -10.85439,0.45899 c 0.15208,-1.06683 0.37947,-2.43467 0.68216,-4.10352 0.30269,-1.66884 0.61867,-3.35308 0.94795,-5.05274 0.32926,-1.69962 0.6098,-3.12906 0.84163,-4.2883 0.2318,-1.15921 0.35288,-1.76262 0.36323,-1.81024 l -0.432,-0.53999 c -0.0302,0.004 -0.37783,0.032 -1.04299,0.084 -0.66516,0.052 -1.46682,0.10401 -2.40496,0.15599 -0.93816,0.052 -1.83182,0.08 -2.68097,0.084 l -0.324,2.21397 0.75599,0 c 0.30881,-0.002 0.53493,0.0692 0.67837,0.21263 0.14343,0.14345 0.21431,0.36957 0.21262,0.67836 -0.0124,0.24794 -0.13612,1.09364 -0.37124,2.53713 -0.23513,1.44351 -0.50737,3.09076 -0.81674,4.94178 -0.30937,1.85103 -0.58162,3.51178 -0.81674,4.98228 -0.23512,1.47049 -0.35887,2.3567 -0.37125,2.65862 0,1.21048 0.59399,1.81347 1.78198,1.80897 0.70705,0.0298 1.47992,-0.25931 2.3186,-0.86736 0.83867,-0.60805 1.95578,-1.71391 3.35133,-3.31758 l -0.54,-1.29599 -0.62099,-0.10799 c -0.55631,0.49499 -0.91518,0.80774 -1.07661,0.93823 -0.16144,0.13051 -0.27056,0.18676 -0.32737,0.16875 z m -18.50806,4.23895 c 0.29682,0.002 0.74415,0.0193 1.34198,0.053 0.59782,0.0337 1.18514,0.0733 1.76198,0.11899 0.57681,0.0457 0.98214,0.0873 1.21598,0.125 2.75733,-0.002 4.8363,-0.50399 6.23692,-1.50523 1.40059,-1.00123 2.10258,-2.48846 2.10597,-4.46169 -0.002,-0.7858 -0.24076,-1.48216 -0.71549,-2.0891 -0.47476,-0.60692 -1.17225,-1.10754 -2.09247,-1.50185 1.07322,-0.69298 1.85621,-1.41297 2.34897,-2.15997 0.49273,-0.74698 0.73572,-1.57497 0.72899,-2.48397 -0.0124,-1.19585 -0.52088,-2.11833 -1.52548,-2.76747 -1.00463,-0.6491 -2.43111,-0.97759 -4.27944,-0.98548 -0.0444,0.002 -0.40268,0.0187 -1.07499,0.049 -0.67233,0.0303 -1.39266,0.0607 -2.16097,0.091 -0.76833,0.0303 -1.31866,0.0467 -1.65098,0.049 -0.31917,-6.5e-4 -0.83283,-0.005 -1.54098,-0.014 -0.70816,-0.009 -1.36982,-0.0173 -1.98498,-0.026 -0.61516,-0.009 -0.94282,-0.0133 -0.98298,-0.014 l -0.567,2.15998 0.27,0.32399 c 0.018,-0.002 0.1305,-0.0112 0.3375,-0.027 0.20699,-0.0157 0.40049,-0.0247 0.58049,-0.027 0.21656,10e-4 0.37068,0.10689 0.46237,0.31725 0.0917,0.21039 0.11756,0.51863 0.0776,0.92474 l -1.21498,9.63887 c -0.0681,0.63394 -0.24919,1.09405 -0.54337,1.38036 -0.29419,0.28631 -0.77905,0.48318 -1.45461,0.59062 l -0.53999,2.42997 c 0.029,-0.002 0.325,-0.0187 0.88799,-0.049 0.56299,-0.0303 1.21898,-0.0607 1.96797,-0.091 0.74899,-0.0303 1.41698,-0.0467 2.00398,-0.049 z m 5.42693,-7.01991 c 0.44604,0.16425 0.78241,0.396 1.00911,0.69524 0.22667,0.29925 0.3403,0.6525 0.34087,1.05974 -0.005,0.70537 -0.19126,1.24536 -0.56024,1.61998 -0.36901,0.37462 -0.89325,0.56362 -1.57273,0.56699 -0.65813,0.002 -1.12387,-0.0967 -1.39723,-0.297 -0.27338,-0.20024 -0.37463,-0.51524 -0.30375,-0.94499 l 0.45899,-2.69996 z m -1.53898,-3.48296 c 0.008,-0.0664 0.0731,-0.48035 0.19574,-1.24198 0.12262,-0.7616 0.25537,-1.47259 0.39825,-2.13297 0.023,-0.14567 0.0714,-0.2458 0.14512,-0.30037 0.0737,-0.0546 0.1963,-0.0804 0.36787,-0.0776 0.75373,-5.5e-4 1.31173,0.12883 1.67398,0.38812 0.36224,0.25932 0.54223,0.65194 0.53999,1.17786 -0.0551,0.82407 -0.27563,1.44393 -0.66149,1.8596 -0.38588,0.41569 -0.60637,0.62382 -0.66149,0.62437 -0.34313,-0.0124 -0.75037,-0.0619 -1.22173,-0.1485 -0.47138,-0.0866 -0.73013,-0.13611 -0.77624,-0.1485 z m -11.78302,0.486 c -0.0118,-0.94104 -0.34594,-1.67791 -1.00236,-2.2106 -0.65644,-0.53267 -1.5643,-0.80379 -2.72359,-0.81336 -2.13635,0.0619 -3.92508,0.88312 -5.36618,2.46371 -1.44111,1.58062 -2.19035,3.54934 -2.24772,5.90618 0.0174,1.53111 0.42131,2.74159 1.21161,3.63145 0.7903,0.88986 1.86241,1.34436 3.21633,1.36348 1.29654,-0.0264 2.51715,-0.4123 3.66183,-1.15761 1.14466,-0.7453 1.96703,-1.69141 2.46709,-2.83833 l -1.40398,-1.56598 -0.59399,-0.081 c -0.37575,0.65868 -0.765,1.14355 -1.16774,1.4546 -0.40275,0.31107 -0.83249,0.46519 -1.28923,0.46237 -0.43144,-10e-4 -0.77006,-0.11362 -1.01586,-0.33749 -0.24582,-0.22387 -0.40219,-0.55237 -0.46912,-0.98549 2.39452,-0.70142 4.11912,-1.45179 5.17381,-2.2511 1.05466,-0.79929 1.57103,-1.8129 1.5491,-3.04083 z m -4.72494,0.21599 c 0.20531,0.002 0.36843,0.0585 0.48937,0.16875 0.12093,0.11026 0.18281,0.26101 0.18563,0.45225 -0.002,0.40725 -0.22107,0.80099 -0.65812,1.18123 -0.43706,0.38025 -1.08168,0.7335 -1.93385,1.05974 0.13724,-0.93429 0.36899,-1.64416 0.69524,-2.1296 0.32624,-0.48542 0.73348,-0.72954 1.22173,-0.73237 z m -9.29987,5.48093 c 0.0876,-0.40915 0.25732,-1.00381 0.50899,-1.78397 0.25165,-0.78015 0.49132,-1.55881 0.71899,-2.33597 0.22765,-0.77715 0.34932,-1.36581 0.365,-1.76598 -0.0107,-0.91179 -0.36732,-1.61941 -1.06986,-2.12285 -0.70257,-0.50342 -1.68693,-0.75879 -2.95309,-0.76611 -0.48713,0.32457 -0.99787,0.89719 -1.53223,1.71785 -0.53437,0.82069 -1.08562,1.88605 -1.65373,3.19608 l -0.189,0.027 c 0.28199,-1.68663 0.59099,-3.39227 0.92699,-5.11693 0.33599,-1.72463 0.62699,-3.17628 0.87299,-4.35495 0.24599,-1.17863 0.37499,-1.79229 0.387,-1.84097 l -0.405,-0.56699 c -0.031,0.004 -0.383,0.032 -1.05598,0.084 -0.673,0.052 -1.48099,0.10401 -2.42397,0.15599 -0.943,0.052 -1.83498,0.08 -2.67597,0.084 l -0.324,2.21397 0.756,0 c 0.36168,-0.006 0.6103,0.0799 0.74586,0.2565 0.13556,0.17664 0.17493,0.47814 0.11812,0.90449 -0.0982,0.6125 -0.27977,1.74831 -0.54463,3.40744 -0.26487,1.65915 -0.55019,3.44718 -0.85597,5.36407 -0.30579,1.91691 -0.56918,3.56825 -0.79016,4.95401 -0.22099,1.38578 -0.33673,2.11153 -0.3472,2.17727 l 0.53999,0.621 c 1.05748,-0.0112 1.96647,-0.15075 2.72696,-0.4185 0.76049,-0.26775 1.18348,-0.59624 1.26899,-0.98549 l 0.189,-1.59298 c 0.60973,-1.71841 1.19247,-3.10776 1.74822,-4.16807 0.55574,-1.06029 0.98998,-1.60591 1.30274,-1.63685 0.32398,-0.004 0.48598,0.2475 0.48599,0.75599 -0.0203,0.38234 -0.16267,1.01266 -0.42699,1.89097 -0.26434,0.87833 -0.52867,1.76265 -0.79299,2.65297 -0.26434,0.89032 -0.40667,1.54465 -0.427,1.96298 -0.003,0.55068 0.13837,0.95455 0.42525,1.2116 0.28686,0.25706 0.7391,0.38419 1.35673,0.38138 0.72054,0.0247 1.50016,-0.2745 2.33884,-0.89774 0.83867,-0.62324 1.94903,-1.71898 3.33109,-3.28721 l -0.513,-1.29598 -0.64799,-0.108 c -0.53438,0.48318 -0.88988,0.79255 -1.06649,0.92811 -0.17663,0.13556 -0.28913,0.19519 -0.33749,0.17887 z m -22.548286,-0.21599 c -0.07988,0.81618 -0.318376,1.38429 -0.715491,1.70435 -0.397124,0.32006 -1.121614,0.51693 -2.173472,0.59062 l -0.512993,2.48397 c 0.03516,-0.003 0.375826,-0.024 1.021986,-0.063 0.646155,-0.039 1.386812,-0.078 2.221972,-0.117 0.83515,-0.039 1.553807,-0.06 2.155972,-0.063 0.542319,0.002 1.230643,0.016 2.064973,0.042 0.834313,0.026 1.584636,0.052 2.250971,0.078 0.666313,0.026 1.018642,0.04 1.056987,0.042 l 0.539993,-2.53797 -0.107999,-0.162 c -0.01576,0.003 -0.15976,0.0169 -0.431994,0.0405 -0.272259,0.0236 -0.578255,0.0371 -0.917988,0.0405 -0.402756,0.005 -0.697502,-0.099 -0.884239,-0.3105 -0.186758,-0.21149 -0.279007,-0.55799 -0.276746,-1.03948 0.0095,-0.38483 0.09849,-1.22915 0.266996,-2.53297 0.168487,-1.30381 0.359485,-2.70212 0.572993,-4.19495 0.213486,-1.4928 0.392484,-2.71511 0.536993,-3.66695 0.626605,-0.0472 1.00685,0.18226 1.140735,0.68849 0.133861,0.50626 0.14961,1.57274 0.04725,3.19946 l 3.374957,-0.216 c 0.002,-0.0262 0.037,-0.38481 0.105,-1.07598 0.068,-0.69115 0.15698,-1.5578 0.26699,-2.59997 0.10999,-1.04214 0.22898,-2.10279 0.357,-3.18196 l -0.297,-0.37799 -3.266954,0.29699 -8.234894,0 -3.10496,-0.29699 -0.404995,0.37799 c -0.140833,1.05634 -0.294165,2.12366 -0.459995,3.20196 -0.165832,1.07833 -0.309163,1.98565 -0.429994,2.72197 -0.120833,0.73633 -0.184165,1.11966 -0.189997,1.14998 l 3.401956,-0.216 c 0.26943,-1.46415 0.547301,-2.45076 0.833615,-2.95983 0.286304,-0.50905 0.746422,-0.74642 1.380357,-0.71212 z" />
    </g>
  </g>
</svg>
